G04 #@! TF.GenerationSoftware,KiCad,Pcbnew,9.0.2*
G04 #@! TF.CreationDate,2025-09-05T09:59:15+02:00*
G04 #@! TF.ProjectId,JtagArm20Adapter,4a746167-4172-46d3-9230-416461707465,rev?*
G04 #@! TF.SameCoordinates,Original*
G04 #@! TF.FileFunction,Legend,Bot*
G04 #@! TF.FilePolarity,Positive*
%FSLAX46Y46*%
G04 Gerber Fmt 4.6, Leading zero omitted, Abs format (unit mm)*
G04 Created by KiCad (PCBNEW 9.0.2) date 2025-09-05 09:59:15*
%MOMM*%
%LPD*%
G01*
G04 APERTURE LIST*
%ADD10C,0.150000*%
%ADD11C,0.120000*%
G04 #@! TA.AperFunction,Profile*
%ADD12C,0.050000*%
G04 #@! TD*
G04 APERTURE END LIST*
D10*
X166283333Y-103104819D02*
X166283333Y-103819104D01*
X166283333Y-103819104D02*
X166330952Y-103961961D01*
X166330952Y-103961961D02*
X166426190Y-104057200D01*
X166426190Y-104057200D02*
X166569047Y-104104819D01*
X166569047Y-104104819D02*
X166664285Y-104104819D01*
X165807142Y-104104819D02*
X165807142Y-103104819D01*
X165807142Y-103104819D02*
X165426190Y-103104819D01*
X165426190Y-103104819D02*
X165330952Y-103152438D01*
X165330952Y-103152438D02*
X165283333Y-103200057D01*
X165283333Y-103200057D02*
X165235714Y-103295295D01*
X165235714Y-103295295D02*
X165235714Y-103438152D01*
X165235714Y-103438152D02*
X165283333Y-103533390D01*
X165283333Y-103533390D02*
X165330952Y-103581009D01*
X165330952Y-103581009D02*
X165426190Y-103628628D01*
X165426190Y-103628628D02*
X165807142Y-103628628D01*
X164854761Y-103200057D02*
X164807142Y-103152438D01*
X164807142Y-103152438D02*
X164711904Y-103104819D01*
X164711904Y-103104819D02*
X164473809Y-103104819D01*
X164473809Y-103104819D02*
X164378571Y-103152438D01*
X164378571Y-103152438D02*
X164330952Y-103200057D01*
X164330952Y-103200057D02*
X164283333Y-103295295D01*
X164283333Y-103295295D02*
X164283333Y-103390533D01*
X164283333Y-103390533D02*
X164330952Y-103533390D01*
X164330952Y-103533390D02*
X164902380Y-104104819D01*
X164902380Y-104104819D02*
X164283333Y-104104819D01*
X153883333Y-103054819D02*
X153883333Y-103769104D01*
X153883333Y-103769104D02*
X153930952Y-103911961D01*
X153930952Y-103911961D02*
X154026190Y-104007200D01*
X154026190Y-104007200D02*
X154169047Y-104054819D01*
X154169047Y-104054819D02*
X154264285Y-104054819D01*
X153407142Y-104054819D02*
X153407142Y-103054819D01*
X153407142Y-103054819D02*
X153026190Y-103054819D01*
X153026190Y-103054819D02*
X152930952Y-103102438D01*
X152930952Y-103102438D02*
X152883333Y-103150057D01*
X152883333Y-103150057D02*
X152835714Y-103245295D01*
X152835714Y-103245295D02*
X152835714Y-103388152D01*
X152835714Y-103388152D02*
X152883333Y-103483390D01*
X152883333Y-103483390D02*
X152930952Y-103531009D01*
X152930952Y-103531009D02*
X153026190Y-103578628D01*
X153026190Y-103578628D02*
X153407142Y-103578628D01*
X151883333Y-104054819D02*
X152454761Y-104054819D01*
X152169047Y-104054819D02*
X152169047Y-103054819D01*
X152169047Y-103054819D02*
X152264285Y-103197676D01*
X152264285Y-103197676D02*
X152359523Y-103292914D01*
X152359523Y-103292914D02*
X152454761Y-103340533D01*
D11*
X164050000Y-103900000D02*
X164050000Y-103300000D01*
X163500000Y-105100000D02*
X162900000Y-105100000D01*
X163400000Y-102600000D02*
X160600000Y-102600000D01*
X163200000Y-104800000D02*
X163500000Y-105100000D01*
X163200000Y-104800000D02*
X162900000Y-105100000D01*
X160600000Y-104600000D02*
X163400000Y-104600000D01*
X159950000Y-103300000D02*
X159950000Y-103900000D01*
X163350000Y-102600000D02*
G75*
G02*
X164050000Y-103300000I1J-699999D01*
G01*
X164050000Y-103900000D02*
G75*
G02*
X163350000Y-104600000I-699999J-1D01*
G01*
X159950000Y-103300000D02*
G75*
G02*
X160650000Y-102600000I700000J0D01*
G01*
X160650000Y-104600000D02*
G75*
G02*
X159950000Y-103900000I0J700000D01*
G01*
X158700000Y-103900000D02*
X158700000Y-103300000D01*
X158150000Y-105100000D02*
X157550000Y-105100000D01*
X158050000Y-102600000D02*
X155250000Y-102600000D01*
X157850000Y-104800000D02*
X158150000Y-105100000D01*
X157850000Y-104800000D02*
X157550000Y-105100000D01*
X155250000Y-104600000D02*
X158050000Y-104600000D01*
X154600000Y-103300000D02*
X154600000Y-103900000D01*
X158000000Y-102600000D02*
G75*
G02*
X158700000Y-103300000I1J-699999D01*
G01*
X158700000Y-103900000D02*
G75*
G02*
X158000000Y-104600000I-699999J-1D01*
G01*
X154600000Y-103300000D02*
G75*
G02*
X155300000Y-102600000I700000J0D01*
G01*
X155300000Y-104600000D02*
G75*
G02*
X154600000Y-103900000I0J700000D01*
G01*
D12*
X137500000Y-78000000D02*
X167000000Y-78000000D01*
X167000000Y-110000000D01*
X137500000Y-110000000D01*
X137500000Y-78000000D01*
M02*
