G04 #@! TF.GenerationSoftware,KiCad,Pcbnew,9.0.2*
G04 #@! TF.CreationDate,2025-09-05T09:59:15+02:00*
G04 #@! TF.ProjectId,JtagArm20Adapter,4a746167-4172-46d3-9230-416461707465,rev?*
G04 #@! TF.SameCoordinates,Original*
G04 #@! TF.FileFunction,Copper,L1,Top*
G04 #@! TF.FilePolarity,Positive*
%FSLAX46Y46*%
G04 Gerber Fmt 4.6, Leading zero omitted, Abs format (unit mm)*
G04 Created by KiCad (PCBNEW 9.0.2) date 2025-09-05 09:59:15*
%MOMM*%
%LPD*%
G01*
G04 APERTURE LIST*
G04 Aperture macros list*
%AMRoundRect*
0 Rectangle with rounded corners*
0 $1 Rounding radius*
0 $2 $3 $4 $5 $6 $7 $8 $9 X,Y pos of 4 corners*
0 Add a 4 corners polygon primitive as box body*
4,1,4,$2,$3,$4,$5,$6,$7,$8,$9,$2,$3,0*
0 Add four circle primitives for the rounded corners*
1,1,$1+$1,$2,$3*
1,1,$1+$1,$4,$5*
1,1,$1+$1,$6,$7*
1,1,$1+$1,$8,$9*
0 Add four rect primitives between the rounded corners*
20,1,$1+$1,$2,$3,$4,$5,0*
20,1,$1+$1,$4,$5,$6,$7,0*
20,1,$1+$1,$6,$7,$8,$9,0*
20,1,$1+$1,$8,$9,$2,$3,0*%
G04 Aperture macros list end*
G04 #@! TA.AperFunction,ComponentPad*
%ADD10RoundRect,0.250000X-0.350000X-0.625000X0.350000X-0.625000X0.350000X0.625000X-0.350000X0.625000X0*%
G04 #@! TD*
G04 #@! TA.AperFunction,ComponentPad*
%ADD11O,1.200000X1.750000*%
G04 #@! TD*
G04 #@! TA.AperFunction,ComponentPad*
%ADD12R,1.700000X1.700000*%
G04 #@! TD*
G04 #@! TA.AperFunction,ComponentPad*
%ADD13O,1.700000X1.700000*%
G04 #@! TD*
G04 #@! TA.AperFunction,ComponentPad*
%ADD14C,1.700000*%
G04 #@! TD*
G04 #@! TA.AperFunction,ViaPad*
%ADD15C,1.016000*%
G04 #@! TD*
G04 #@! TA.AperFunction,ViaPad*
%ADD16C,1.000000*%
G04 #@! TD*
G04 #@! TA.AperFunction,Conductor*
%ADD17C,0.500000*%
G04 #@! TD*
G04 #@! TA.AperFunction,Conductor*
%ADD18C,0.508000*%
G04 #@! TD*
G04 #@! TA.AperFunction,Profile*
%ADD19C,0.050000*%
G04 #@! TD*
G04 APERTURE END LIST*
D10*
X160000000Y-106500000D03*
D11*
X162000000Y-106500000D03*
X164000000Y-106500000D03*
D12*
X142240000Y-82550000D03*
D13*
X139700000Y-82550000D03*
X142240000Y-85090000D03*
X139700000Y-85090000D03*
X142240000Y-87630000D03*
X139700000Y-87630000D03*
X142240000Y-90170000D03*
X139700000Y-90170000D03*
X142240000Y-92710000D03*
X139700000Y-92710000D03*
X142240000Y-95250000D03*
X139700000Y-95250000D03*
X142240000Y-97790000D03*
X139700000Y-97790000D03*
X142240000Y-100330000D03*
X139700000Y-100330000D03*
X142240000Y-102870000D03*
X139700000Y-102870000D03*
X142240000Y-105410000D03*
X139700000Y-105410000D03*
D12*
X149460000Y-108000000D03*
D14*
X152000000Y-108000000D03*
X154540000Y-108000000D03*
D12*
X162800000Y-101150000D03*
D14*
X160260000Y-101150000D03*
X162800000Y-98610000D03*
X160260000Y-98610000D03*
X162800000Y-96070000D03*
X160260000Y-96070000D03*
D12*
X161450000Y-80800000D03*
D14*
X161450000Y-83340000D03*
X161450000Y-85880000D03*
X161450000Y-88420000D03*
X161450000Y-90960000D03*
D15*
X155450000Y-100000000D03*
X155800000Y-102150000D03*
D16*
X164500000Y-95000000D03*
X156100000Y-93850000D03*
X151150000Y-92750000D03*
D17*
X155350000Y-90170000D02*
X155950000Y-90170000D01*
D18*
X156600000Y-92500000D02*
X155950000Y-91850000D01*
D17*
X155950000Y-90170000D02*
X157286672Y-90170000D01*
D18*
X156600000Y-92500000D02*
X157600000Y-93500000D01*
X157600000Y-93500000D02*
X157600000Y-98250000D01*
X160260000Y-101150000D02*
X157600000Y-98490000D01*
X157600000Y-98490000D02*
X157600000Y-98250000D01*
X155800000Y-102150000D02*
X155800000Y-102300000D01*
X155800000Y-102300000D02*
X160000000Y-106500000D01*
X146238627Y-107923630D02*
X146586524Y-107575734D01*
X145917596Y-106547596D02*
X146445097Y-106020094D01*
X144323766Y-103898764D02*
X143975869Y-104246660D01*
X146766129Y-107396129D02*
X147293630Y-106868627D01*
X145069063Y-105699063D02*
X145596564Y-105171561D01*
X143551606Y-104181606D02*
X143085000Y-103715000D01*
X144748031Y-103963818D02*
X144682977Y-103898764D01*
X144606617Y-106650830D02*
X144541563Y-106585776D01*
X143085000Y-103715000D02*
X142240000Y-102870000D01*
X146020832Y-105595830D02*
X145493330Y-106123331D01*
X146445097Y-105660884D02*
X146380043Y-105595830D01*
X145390097Y-107075099D02*
X145917597Y-106547596D01*
X147500000Y-108000000D02*
X147370000Y-108000000D01*
X146869365Y-106444363D02*
X146341863Y-106971864D01*
X145596564Y-104812351D02*
X145531510Y-104747297D01*
X145493330Y-106123330D02*
X144965827Y-106650830D01*
X147010788Y-107999999D02*
X146662892Y-108347896D01*
X143616659Y-104246660D02*
X143551606Y-104181606D01*
X144400135Y-104670924D02*
X144748031Y-104323028D01*
X145493330Y-106123331D02*
X145493330Y-106123330D01*
X146303682Y-108347896D02*
X146238628Y-108282842D01*
X144220530Y-104850530D02*
X144400135Y-104670924D01*
X143693031Y-105378033D02*
X144220531Y-104850530D01*
X144644797Y-105274797D02*
X144117294Y-105802297D01*
X144644797Y-105274798D02*
X144644797Y-105274797D01*
X144541564Y-106226566D02*
X145069064Y-105699063D01*
X147293630Y-106509417D02*
X147228576Y-106444363D01*
X145455150Y-107499363D02*
X145390096Y-107434309D01*
X145069064Y-105699063D02*
X145069063Y-105699063D01*
X149460000Y-108000000D02*
X147500000Y-108000000D01*
X143758084Y-105802297D02*
X143693030Y-105737243D01*
X144220531Y-104850530D02*
X144220530Y-104850530D01*
X146341863Y-106971863D02*
X145814360Y-107499363D01*
X146341863Y-106971864D02*
X146341863Y-106971863D01*
X146586524Y-107575734D02*
X146766129Y-107396129D01*
X145917597Y-106547596D02*
X145917596Y-106547596D01*
X145172299Y-104747297D02*
X144644797Y-105274798D01*
X145596564Y-105171561D02*
G75*
G03*
X145596520Y-104812395I-179564J179561D01*
G01*
X144541563Y-106585776D02*
G75*
G02*
X144541592Y-106226594I179637J179576D01*
G01*
X145531510Y-104747297D02*
G75*
G03*
X145172300Y-104747297I-179605J-179602D01*
G01*
X146238628Y-108282842D02*
G75*
G02*
X146238591Y-107923594I179572J179642D01*
G01*
X147293630Y-106868627D02*
G75*
G03*
X147293652Y-106509395I-179630J179627D01*
G01*
X147370000Y-108000000D02*
G75*
G03*
X147010795Y-108000005I-179600J-179600D01*
G01*
X145814360Y-107499363D02*
G75*
G02*
X145455150Y-107499363I-179605J179604D01*
G01*
X146662892Y-108347896D02*
G75*
G02*
X146303682Y-108347896I-179605J179604D01*
G01*
X145390096Y-107434309D02*
G75*
G02*
X145390092Y-107075095I179604J179609D01*
G01*
X144748031Y-104323028D02*
G75*
G03*
X144748054Y-103963795I-179631J179628D01*
G01*
X143975869Y-104246660D02*
G75*
G02*
X143616659Y-104246660I-179605J179604D01*
G01*
X143693030Y-105737243D02*
G75*
G02*
X143692992Y-105377994I179570J179643D01*
G01*
X144965827Y-106650830D02*
G75*
G02*
X144606617Y-106650830I-179605J179604D01*
G01*
X146380043Y-105595830D02*
G75*
G03*
X146020833Y-105595830I-179605J-179602D01*
G01*
X146445097Y-106020094D02*
G75*
G03*
X146445086Y-105660895I-179597J179594D01*
G01*
X144682977Y-103898764D02*
G75*
G03*
X144323767Y-103898764I-179605J-179602D01*
G01*
X147228576Y-106444363D02*
G75*
G03*
X146869366Y-106444363I-179605J-179602D01*
G01*
X144117294Y-105802297D02*
G75*
G02*
X143758084Y-105802297I-179605J179604D01*
G01*
X149460000Y-104040000D02*
X149460000Y-108000000D01*
X153500000Y-100000000D02*
X149460000Y-104040000D01*
X155450000Y-100000000D02*
X153500000Y-100000000D01*
D17*
X152250000Y-94450000D02*
X146370000Y-100330000D01*
X155500000Y-94450000D02*
X152250000Y-94450000D01*
X146370000Y-100330000D02*
X142240000Y-100330000D01*
X156100000Y-93850000D02*
X155500000Y-94450000D01*
D18*
X163150000Y-101150000D02*
X165800000Y-98500000D01*
X162800000Y-101150000D02*
X163150000Y-101150000D01*
D17*
X165800000Y-84282939D02*
X165800000Y-98500000D01*
X161450000Y-80800000D02*
X162317061Y-80800000D01*
X162317061Y-80800000D02*
X165800000Y-84282939D01*
X161380000Y-88420000D02*
X161450000Y-88420000D01*
X159420662Y-90170000D02*
X159630000Y-90170000D01*
X159630000Y-90170000D02*
X161380000Y-88420000D01*
X158486672Y-89170000D02*
G75*
G02*
X158736700Y-89420000I28J-250000D01*
G01*
X158736672Y-89920000D02*
G75*
G03*
X158986672Y-90170028I250028J0D01*
G01*
X157886672Y-91170000D02*
G75*
G03*
X158136700Y-90920000I28J250000D01*
G01*
X157536672Y-90920000D02*
G75*
G03*
X157786672Y-91170028I250028J0D01*
G01*
X157286672Y-90170000D02*
G75*
G02*
X157536700Y-90420000I28J-250000D01*
G01*
X158136672Y-89420000D02*
G75*
G02*
X158386672Y-89169972I250028J0D01*
G01*
X158386672Y-89170000D02*
X158486672Y-89170000D01*
X157786672Y-91170000D02*
X157886672Y-91170000D01*
X158136672Y-89920000D02*
X158136672Y-89420000D01*
X158986672Y-90170000D02*
X159086672Y-90170000D01*
X157536672Y-90420000D02*
X157536672Y-90920000D01*
X158136672Y-90420000D02*
X158136672Y-89920000D01*
X159086672Y-90170000D02*
X159420662Y-90170000D01*
X158736672Y-89420000D02*
X158736672Y-89920000D01*
X158136672Y-90920000D02*
X158136672Y-90420000D01*
X142240000Y-90170000D02*
X155350000Y-90170000D01*
X160250000Y-80800000D02*
X161450000Y-80800000D01*
X142240000Y-82550000D02*
X158500000Y-82550000D01*
X158500000Y-82550000D02*
X160250000Y-80800000D01*
X161500000Y-91010000D02*
X161450000Y-90960000D01*
X161500000Y-92000000D02*
X161500000Y-91010000D01*
X164500000Y-95000000D02*
X161500000Y-92000000D01*
X164500000Y-95000000D02*
X164500000Y-96910000D01*
X164500000Y-96910000D02*
X162800000Y-98610000D01*
X151150000Y-92750000D02*
X142280000Y-92750000D01*
X142280000Y-92750000D02*
X142240000Y-92710000D01*
D18*
X155950000Y-91850000D02*
X155950000Y-90170000D01*
G04 #@! TA.AperFunction,Conductor*
G36*
X139950000Y-94816988D02*
G01*
X139892993Y-94784075D01*
X139765826Y-94750000D01*
X139634174Y-94750000D01*
X139507007Y-94784075D01*
X139450000Y-94816988D01*
X139450000Y-93143012D01*
X139507007Y-93175925D01*
X139634174Y-93210000D01*
X139765826Y-93210000D01*
X139892993Y-93175925D01*
X139950000Y-93143012D01*
X139950000Y-94816988D01*
G37*
G04 #@! TD.AperFunction*
G04 #@! TA.AperFunction,Conductor*
G36*
X139950000Y-92276988D02*
G01*
X139892993Y-92244075D01*
X139765826Y-92210000D01*
X139634174Y-92210000D01*
X139507007Y-92244075D01*
X139450000Y-92276988D01*
X139450000Y-90603012D01*
X139507007Y-90635925D01*
X139634174Y-90670000D01*
X139765826Y-90670000D01*
X139892993Y-90635925D01*
X139950000Y-90603012D01*
X139950000Y-92276988D01*
G37*
G04 #@! TD.AperFunction*
G04 #@! TA.AperFunction,Conductor*
G36*
X139950000Y-89736988D02*
G01*
X139892993Y-89704075D01*
X139765826Y-89670000D01*
X139634174Y-89670000D01*
X139507007Y-89704075D01*
X139450000Y-89736988D01*
X139450000Y-88063012D01*
X139507007Y-88095925D01*
X139634174Y-88130000D01*
X139765826Y-88130000D01*
X139892993Y-88095925D01*
X139950000Y-88063012D01*
X139950000Y-89736988D01*
G37*
G04 #@! TD.AperFunction*
G04 #@! TA.AperFunction,Conductor*
G36*
X139950000Y-87196988D02*
G01*
X139892993Y-87164075D01*
X139765826Y-87130000D01*
X139634174Y-87130000D01*
X139507007Y-87164075D01*
X139450000Y-87196988D01*
X139450000Y-85523012D01*
X139507007Y-85555925D01*
X139634174Y-85590000D01*
X139765826Y-85590000D01*
X139892993Y-85555925D01*
X139950000Y-85523012D01*
X139950000Y-87196988D01*
G37*
G04 #@! TD.AperFunction*
G04 #@! TA.AperFunction,Conductor*
G36*
X166842861Y-78169782D02*
G01*
X166888706Y-78222508D01*
X166900000Y-78274212D01*
X166900000Y-109776000D01*
X166880315Y-109843039D01*
X166827511Y-109888794D01*
X166776000Y-109900000D01*
X137774000Y-109900000D01*
X137706961Y-109880315D01*
X137661206Y-109827511D01*
X137650000Y-109776000D01*
X137650000Y-105313621D01*
X138721500Y-105313621D01*
X138721500Y-105506378D01*
X138759100Y-105695410D01*
X138759103Y-105695419D01*
X138832860Y-105873487D01*
X138832867Y-105873500D01*
X138939948Y-106033757D01*
X138939951Y-106033761D01*
X139076238Y-106170048D01*
X139076242Y-106170051D01*
X139236499Y-106277132D01*
X139236512Y-106277139D01*
X139344509Y-106321872D01*
X139414582Y-106350897D01*
X139414584Y-106350897D01*
X139414589Y-106350899D01*
X139603621Y-106388499D01*
X139603625Y-106388500D01*
X139603626Y-106388500D01*
X139796375Y-106388500D01*
X139796376Y-106388499D01*
X139859388Y-106375965D01*
X139985410Y-106350899D01*
X139985413Y-106350897D01*
X139985418Y-106350897D01*
X140163494Y-106277136D01*
X140323758Y-106170051D01*
X140460051Y-106033758D01*
X140567136Y-105873494D01*
X140640897Y-105695418D01*
X140650235Y-105648475D01*
X140674896Y-105524494D01*
X140678500Y-105506374D01*
X140678500Y-105313626D01*
X140670748Y-105274652D01*
X140640899Y-105124589D01*
X140640896Y-105124580D01*
X140567139Y-104946512D01*
X140567132Y-104946499D01*
X140460051Y-104786242D01*
X140460048Y-104786238D01*
X140323761Y-104649951D01*
X140323757Y-104649948D01*
X140163500Y-104542867D01*
X140163487Y-104542860D01*
X139985419Y-104469103D01*
X139985410Y-104469100D01*
X139796378Y-104431500D01*
X139796374Y-104431500D01*
X139603626Y-104431500D01*
X139603621Y-104431500D01*
X139414589Y-104469100D01*
X139414580Y-104469103D01*
X139236512Y-104542860D01*
X139236499Y-104542867D01*
X139076242Y-104649948D01*
X139076238Y-104649951D01*
X138939951Y-104786238D01*
X138939948Y-104786242D01*
X138832867Y-104946499D01*
X138832860Y-104946512D01*
X138759103Y-105124580D01*
X138759100Y-105124589D01*
X138721500Y-105313621D01*
X137650000Y-105313621D01*
X137650000Y-102773621D01*
X138721500Y-102773621D01*
X138721500Y-102966378D01*
X138759100Y-103155410D01*
X138759103Y-103155419D01*
X138832860Y-103333487D01*
X138832867Y-103333500D01*
X138939948Y-103493757D01*
X138939951Y-103493761D01*
X139076238Y-103630048D01*
X139076242Y-103630051D01*
X139236499Y-103737132D01*
X139236512Y-103737139D01*
X139333587Y-103777348D01*
X139414582Y-103810897D01*
X139414584Y-103810897D01*
X139414589Y-103810899D01*
X139603621Y-103848499D01*
X139603625Y-103848500D01*
X139603626Y-103848500D01*
X139796375Y-103848500D01*
X139796376Y-103848499D01*
X139875002Y-103832860D01*
X139985410Y-103810899D01*
X139985413Y-103810897D01*
X139985418Y-103810897D01*
X140163494Y-103737136D01*
X140323758Y-103630051D01*
X140460051Y-103493758D01*
X140567136Y-103333494D01*
X140640897Y-103155418D01*
X140678500Y-102966374D01*
X140678500Y-102773626D01*
X140678499Y-102773621D01*
X141261500Y-102773621D01*
X141261500Y-102966378D01*
X141299100Y-103155410D01*
X141299103Y-103155419D01*
X141372860Y-103333487D01*
X141372867Y-103333500D01*
X141479948Y-103493757D01*
X141479951Y-103493761D01*
X141616238Y-103630048D01*
X141616242Y-103630051D01*
X141776499Y-103737132D01*
X141776512Y-103737139D01*
X141873587Y-103777348D01*
X141954582Y-103810897D01*
X141954584Y-103810897D01*
X141954589Y-103810899D01*
X142143621Y-103848499D01*
X142143625Y-103848500D01*
X142143626Y-103848500D01*
X142336375Y-103848500D01*
X142336376Y-103848499D01*
X142525418Y-103810897D01*
X142529862Y-103809055D01*
X142599331Y-103801586D01*
X142661811Y-103832860D01*
X142664998Y-103835935D01*
X142778923Y-103949860D01*
X142778924Y-103949861D01*
X143245528Y-104416464D01*
X143381796Y-104552735D01*
X143381800Y-104552737D01*
X143396901Y-104567838D01*
X143518349Y-104644150D01*
X143566661Y-104661055D01*
X143604411Y-104674265D01*
X143661187Y-104714987D01*
X143686934Y-104779940D01*
X143673477Y-104848501D01*
X143651137Y-104878987D01*
X143458915Y-105071209D01*
X143458876Y-105071249D01*
X143422543Y-105107548D01*
X143422523Y-105107528D01*
X143379169Y-105150884D01*
X143377857Y-105152195D01*
X143347538Y-105168732D01*
X143316574Y-105185640D01*
X143316543Y-105185637D01*
X143316518Y-105185652D01*
X143281895Y-105183159D01*
X143246882Y-105180656D01*
X143246858Y-105180638D01*
X143246829Y-105180636D01*
X143218781Y-105159620D01*
X143190948Y-105138785D01*
X143190928Y-105138750D01*
X143190914Y-105138740D01*
X143190898Y-105138697D01*
X143175656Y-105111930D01*
X143145086Y-105038127D01*
X143107139Y-104946511D01*
X143107132Y-104946499D01*
X143000051Y-104786242D01*
X143000048Y-104786238D01*
X142863761Y-104649951D01*
X142863757Y-104649948D01*
X142703500Y-104542867D01*
X142703487Y-104542860D01*
X142525419Y-104469103D01*
X142525410Y-104469100D01*
X142336378Y-104431500D01*
X142336374Y-104431500D01*
X142143626Y-104431500D01*
X142143621Y-104431500D01*
X141954589Y-104469100D01*
X141954580Y-104469103D01*
X141776512Y-104542860D01*
X141776499Y-104542867D01*
X141616242Y-104649948D01*
X141616238Y-104649951D01*
X141479951Y-104786238D01*
X141479948Y-104786242D01*
X141372867Y-104946499D01*
X141372860Y-104946512D01*
X141299103Y-105124580D01*
X141299100Y-105124589D01*
X141261500Y-105313621D01*
X141261500Y-105506378D01*
X141299100Y-105695410D01*
X141299103Y-105695419D01*
X141372860Y-105873487D01*
X141372867Y-105873500D01*
X141479948Y-106033757D01*
X141479951Y-106033761D01*
X141616238Y-106170048D01*
X141616242Y-106170051D01*
X141776499Y-106277132D01*
X141776512Y-106277139D01*
X141884509Y-106321872D01*
X141954582Y-106350897D01*
X141954584Y-106350897D01*
X141954589Y-106350899D01*
X142143621Y-106388499D01*
X142143625Y-106388500D01*
X142143626Y-106388500D01*
X142336375Y-106388500D01*
X142336376Y-106388499D01*
X142399388Y-106375965D01*
X142525410Y-106350899D01*
X142525413Y-106350897D01*
X142525418Y-106350897D01*
X142703494Y-106277136D01*
X142863758Y-106170051D01*
X143000051Y-106033758D01*
X143072870Y-105924776D01*
X143110210Y-105868894D01*
X143132389Y-105850357D01*
X143152582Y-105829674D01*
X143158871Y-105828226D01*
X143163822Y-105824089D01*
X143192502Y-105820486D01*
X143220672Y-105814004D01*
X143226744Y-105816186D01*
X143233147Y-105815382D01*
X143259225Y-105827858D01*
X143286425Y-105837633D01*
X143291881Y-105843481D01*
X143296175Y-105845536D01*
X143311679Y-105862288D01*
X143315213Y-105866893D01*
X143371890Y-105957058D01*
X143419947Y-106005097D01*
X143425703Y-106010853D01*
X143538322Y-106123472D01*
X143538326Y-106123475D01*
X143659774Y-106199787D01*
X143722970Y-106221900D01*
X143795150Y-106247158D01*
X143795156Y-106247159D01*
X143795158Y-106247160D01*
X143795159Y-106247160D01*
X143795163Y-106247161D01*
X143866423Y-106255189D01*
X143937689Y-106263219D01*
X143944305Y-106262473D01*
X144013124Y-106274525D01*
X144064506Y-106321872D01*
X144082133Y-106389481D01*
X144081411Y-106399577D01*
X144080671Y-106406144D01*
X144080671Y-106406147D01*
X144096714Y-106548662D01*
X144096715Y-106548664D01*
X144144066Y-106684038D01*
X144220352Y-106805486D01*
X144220355Y-106805489D01*
X144229614Y-106814751D01*
X144229613Y-106814751D01*
X144235473Y-106820612D01*
X144235487Y-106820637D01*
X144273919Y-106859069D01*
X144273921Y-106859072D01*
X144273922Y-106859072D01*
X144299569Y-106884728D01*
X144316274Y-106901438D01*
X144316376Y-106901526D01*
X144386855Y-106972005D01*
X144386859Y-106972008D01*
X144508307Y-107048320D01*
X144571503Y-107070433D01*
X144643683Y-107095691D01*
X144643689Y-107095692D01*
X144643691Y-107095693D01*
X144643692Y-107095693D01*
X144643696Y-107095694D01*
X144786218Y-107111752D01*
X144786222Y-107111752D01*
X144786223Y-107111752D01*
X144792808Y-107111010D01*
X144861630Y-107123064D01*
X144913010Y-107170412D01*
X144930635Y-107238023D01*
X144929914Y-107248108D01*
X144929171Y-107254705D01*
X144929171Y-107254707D01*
X144945232Y-107397238D01*
X144992607Y-107532622D01*
X145068916Y-107654065D01*
X145068919Y-107654068D01*
X145068920Y-107654070D01*
X145084019Y-107669168D01*
X145084020Y-107669170D01*
X145220289Y-107805439D01*
X145220290Y-107805439D01*
X145235392Y-107820541D01*
X145356840Y-107896853D01*
X145420036Y-107918966D01*
X145492216Y-107944224D01*
X145492222Y-107944225D01*
X145492224Y-107944226D01*
X145492225Y-107944226D01*
X145492229Y-107944227D01*
X145574044Y-107953444D01*
X145634755Y-107960285D01*
X145641307Y-107959546D01*
X145710126Y-107971597D01*
X145761508Y-108018944D01*
X145779136Y-108086553D01*
X145778416Y-108096637D01*
X145777670Y-108103265D01*
X145793748Y-108245811D01*
X145793749Y-108245814D01*
X145841143Y-108381200D01*
X145841146Y-108381208D01*
X145917481Y-108502648D01*
X145917484Y-108502652D01*
X145917486Y-108502655D01*
X145965543Y-108550694D01*
X146068821Y-108653972D01*
X146068822Y-108653972D01*
X146083924Y-108669074D01*
X146205372Y-108745386D01*
X146268568Y-108767499D01*
X146340748Y-108792757D01*
X146340754Y-108792758D01*
X146340756Y-108792759D01*
X146340757Y-108792759D01*
X146340761Y-108792760D01*
X146483283Y-108808818D01*
X146483287Y-108808818D01*
X146483291Y-108808818D01*
X146625812Y-108792760D01*
X146625814Y-108792759D01*
X146625818Y-108792759D01*
X146625821Y-108792757D01*
X146625825Y-108792757D01*
X146761199Y-108745387D01*
X146761198Y-108745387D01*
X146761202Y-108745386D01*
X146882650Y-108669074D01*
X146882656Y-108669068D01*
X146897752Y-108653972D01*
X146897753Y-108653972D01*
X147149873Y-108401849D01*
X147157819Y-108397510D01*
X147163246Y-108390262D01*
X147188002Y-108381029D01*
X147211194Y-108368366D01*
X147221958Y-108368366D01*
X147228711Y-108365848D01*
X147263914Y-108368366D01*
X147266618Y-108368955D01*
X147276890Y-108371190D01*
X147282621Y-108372580D01*
X147295444Y-108376015D01*
X147319643Y-108382500D01*
X147319650Y-108382500D01*
X147327702Y-108383561D01*
X147327670Y-108383802D01*
X147341900Y-108385332D01*
X147342432Y-108385448D01*
X147379235Y-108382815D01*
X147388081Y-108382500D01*
X147449643Y-108382500D01*
X148357500Y-108382500D01*
X148424539Y-108402185D01*
X148470294Y-108454989D01*
X148481500Y-108506500D01*
X148481500Y-108862658D01*
X148488954Y-108900135D01*
X148488955Y-108900136D01*
X148488955Y-108900137D01*
X148488956Y-108900138D01*
X148517357Y-108942643D01*
X148559862Y-108971044D01*
X148559863Y-108971044D01*
X148559864Y-108971045D01*
X148597341Y-108978499D01*
X148597345Y-108978500D01*
X148597346Y-108978500D01*
X150322655Y-108978500D01*
X150322656Y-108978499D01*
X150335262Y-108975992D01*
X150360135Y-108971045D01*
X150360135Y-108971044D01*
X150360138Y-108971044D01*
X150402643Y-108942643D01*
X150431044Y-108900138D01*
X150438500Y-108862654D01*
X150438500Y-107903621D01*
X151021500Y-107903621D01*
X151021500Y-108096378D01*
X151059100Y-108285410D01*
X151059103Y-108285419D01*
X151132860Y-108463487D01*
X151132867Y-108463500D01*
X151239948Y-108623757D01*
X151239951Y-108623761D01*
X151376238Y-108760048D01*
X151376242Y-108760051D01*
X151536499Y-108867132D01*
X151536512Y-108867139D01*
X151616180Y-108900138D01*
X151714582Y-108940897D01*
X151714584Y-108940897D01*
X151714589Y-108940899D01*
X151903621Y-108978499D01*
X151903625Y-108978500D01*
X151903626Y-108978500D01*
X152096375Y-108978500D01*
X152096376Y-108978499D01*
X152144416Y-108968943D01*
X152257785Y-108946394D01*
X152285410Y-108940899D01*
X152285413Y-108940897D01*
X152285418Y-108940897D01*
X152463494Y-108867136D01*
X152623758Y-108760051D01*
X152760051Y-108623758D01*
X152867136Y-108463494D01*
X152940897Y-108285418D01*
X152948776Y-108245811D01*
X152959909Y-108189839D01*
X152992293Y-108127928D01*
X153053009Y-108093354D01*
X153122779Y-108097093D01*
X153179451Y-108137959D01*
X153203999Y-108194632D01*
X153223242Y-108316127D01*
X153223242Y-108316130D01*
X153288904Y-108518217D01*
X153385375Y-108707550D01*
X153424728Y-108761716D01*
X154057037Y-108129408D01*
X154074075Y-108192993D01*
X154139901Y-108307007D01*
X154232993Y-108400099D01*
X154347007Y-108465925D01*
X154410590Y-108482962D01*
X153778282Y-109115269D01*
X153778282Y-109115270D01*
X153832449Y-109154624D01*
X154021782Y-109251095D01*
X154223870Y-109316757D01*
X154433754Y-109350000D01*
X154646246Y-109350000D01*
X154856127Y-109316757D01*
X154856130Y-109316757D01*
X155058217Y-109251095D01*
X155247554Y-109154622D01*
X155301716Y-109115270D01*
X155301717Y-109115270D01*
X154669408Y-108482962D01*
X154732993Y-108465925D01*
X154847007Y-108400099D01*
X154940099Y-108307007D01*
X155005925Y-108192993D01*
X155022962Y-108129408D01*
X155655270Y-108761717D01*
X155655270Y-108761716D01*
X155694622Y-108707554D01*
X155791095Y-108518217D01*
X155856757Y-108316130D01*
X155856757Y-108316127D01*
X155890000Y-108106246D01*
X155890000Y-107893753D01*
X155856757Y-107683872D01*
X155856757Y-107683869D01*
X155791095Y-107481782D01*
X155694624Y-107292449D01*
X155655270Y-107238282D01*
X155655269Y-107238282D01*
X155022962Y-107870590D01*
X155005925Y-107807007D01*
X154940099Y-107692993D01*
X154847007Y-107599901D01*
X154732993Y-107534075D01*
X154669409Y-107517037D01*
X155301716Y-106884728D01*
X155247550Y-106845375D01*
X155058217Y-106748904D01*
X154856129Y-106683242D01*
X154646246Y-106650000D01*
X154433754Y-106650000D01*
X154223872Y-106683242D01*
X154223869Y-106683242D01*
X154021782Y-106748904D01*
X153832439Y-106845380D01*
X153778282Y-106884727D01*
X153778282Y-106884728D01*
X154410591Y-107517037D01*
X154347007Y-107534075D01*
X154232993Y-107599901D01*
X154139901Y-107692993D01*
X154074075Y-107807007D01*
X154057037Y-107870591D01*
X153424728Y-107238282D01*
X153424727Y-107238282D01*
X153385380Y-107292439D01*
X153288904Y-107481782D01*
X153223242Y-107683869D01*
X153223242Y-107683872D01*
X153203999Y-107805367D01*
X153174070Y-107868502D01*
X153114758Y-107905433D01*
X153044896Y-107904435D01*
X152986663Y-107865825D01*
X152959909Y-107810160D01*
X152940899Y-107714589D01*
X152940896Y-107714580D01*
X152867139Y-107536512D01*
X152867132Y-107536499D01*
X152760051Y-107376242D01*
X152760048Y-107376238D01*
X152623761Y-107239951D01*
X152623757Y-107239948D01*
X152463500Y-107132867D01*
X152463487Y-107132860D01*
X152285419Y-107059103D01*
X152285410Y-107059100D01*
X152257775Y-107053604D01*
X152096378Y-107021500D01*
X152096374Y-107021500D01*
X151903626Y-107021500D01*
X151903621Y-107021500D01*
X151714589Y-107059100D01*
X151714580Y-107059103D01*
X151536512Y-107132860D01*
X151536499Y-107132867D01*
X151376242Y-107239948D01*
X151376238Y-107239951D01*
X151239951Y-107376238D01*
X151239948Y-107376242D01*
X151132867Y-107536499D01*
X151132860Y-107536512D01*
X151059103Y-107714580D01*
X151059100Y-107714589D01*
X151021500Y-107903621D01*
X150438500Y-107903621D01*
X150438500Y-107137346D01*
X150437609Y-107132867D01*
X150431045Y-107099864D01*
X150431044Y-107099863D01*
X150431044Y-107099862D01*
X150402643Y-107057357D01*
X150360138Y-107028956D01*
X150360137Y-107028955D01*
X150360136Y-107028955D01*
X150360135Y-107028954D01*
X150322658Y-107021500D01*
X150322654Y-107021500D01*
X149966500Y-107021500D01*
X149899461Y-107001815D01*
X149853706Y-106949011D01*
X149842500Y-106897500D01*
X149842500Y-104249798D01*
X149862185Y-104182759D01*
X149878819Y-104162117D01*
X151953631Y-102087305D01*
X155163500Y-102087305D01*
X155163500Y-102212694D01*
X155187958Y-102335652D01*
X155187960Y-102335660D01*
X155235939Y-102451493D01*
X155235944Y-102451502D01*
X155305597Y-102555744D01*
X155305600Y-102555748D01*
X155394251Y-102644399D01*
X155394255Y-102644402D01*
X155498497Y-102714055D01*
X155498503Y-102714058D01*
X155498504Y-102714059D01*
X155614340Y-102762040D01*
X155710721Y-102781211D01*
X155772631Y-102813595D01*
X155774210Y-102815147D01*
X159235181Y-106276118D01*
X159268666Y-106337441D01*
X159271500Y-106363799D01*
X159271500Y-107160921D01*
X159282219Y-107234493D01*
X159337700Y-107347981D01*
X159427021Y-107437302D01*
X159505164Y-107475503D01*
X159540507Y-107492781D01*
X159614077Y-107503500D01*
X160385922Y-107503499D01*
X160459493Y-107492781D01*
X160572979Y-107437301D01*
X160662301Y-107347979D01*
X160662302Y-107347978D01*
X160711125Y-107248108D01*
X160717781Y-107234493D01*
X160728500Y-107160923D01*
X160728499Y-106153244D01*
X161271500Y-106153244D01*
X161271500Y-106846755D01*
X161299494Y-106987488D01*
X161299496Y-106987496D01*
X161354412Y-107120075D01*
X161434135Y-107239390D01*
X161434141Y-107239397D01*
X161535602Y-107340858D01*
X161535609Y-107340864D01*
X161654924Y-107420587D01*
X161654925Y-107420587D01*
X161654926Y-107420588D01*
X161787504Y-107475504D01*
X161928244Y-107503499D01*
X161928247Y-107503500D01*
X161928249Y-107503500D01*
X162071753Y-107503500D01*
X162071754Y-107503499D01*
X162212496Y-107475504D01*
X162345074Y-107420588D01*
X162464392Y-107340863D01*
X162565863Y-107239392D01*
X162645588Y-107120074D01*
X162649343Y-107111010D01*
X162683331Y-107028954D01*
X162691049Y-107010321D01*
X162734890Y-106955918D01*
X162801184Y-106933853D01*
X162868883Y-106951132D01*
X162916494Y-107002269D01*
X162926185Y-107028833D01*
X162927084Y-107032579D01*
X162980591Y-107197257D01*
X163059195Y-107351524D01*
X163160967Y-107491602D01*
X163283397Y-107614032D01*
X163423475Y-107715804D01*
X163577744Y-107794408D01*
X163742415Y-107847914D01*
X163742414Y-107847914D01*
X163749999Y-107849115D01*
X163750000Y-107849114D01*
X163750000Y-106780330D01*
X163769745Y-106800075D01*
X163855255Y-106849444D01*
X163950630Y-106875000D01*
X164049370Y-106875000D01*
X164144745Y-106849444D01*
X164230255Y-106800075D01*
X164250000Y-106780330D01*
X164250000Y-107849115D01*
X164257584Y-107847914D01*
X164422255Y-107794408D01*
X164576524Y-107715804D01*
X164716602Y-107614032D01*
X164839032Y-107491602D01*
X164940804Y-107351524D01*
X165019408Y-107197257D01*
X165072914Y-107032584D01*
X165100000Y-106861571D01*
X165100000Y-106750000D01*
X164280330Y-106750000D01*
X164300075Y-106730255D01*
X164349444Y-106644745D01*
X164375000Y-106549370D01*
X164375000Y-106450630D01*
X164349444Y-106355255D01*
X164300075Y-106269745D01*
X164280330Y-106250000D01*
X165100000Y-106250000D01*
X165100000Y-106138428D01*
X165072914Y-105967415D01*
X165019408Y-105802742D01*
X164940804Y-105648475D01*
X164839032Y-105508397D01*
X164716602Y-105385967D01*
X164576524Y-105284195D01*
X164422257Y-105205591D01*
X164257589Y-105152087D01*
X164257581Y-105152085D01*
X164250000Y-105150884D01*
X164250000Y-106219670D01*
X164230255Y-106199925D01*
X164144745Y-106150556D01*
X164049370Y-106125000D01*
X163950630Y-106125000D01*
X163855255Y-106150556D01*
X163769745Y-106199925D01*
X163750000Y-106219670D01*
X163750000Y-105150884D01*
X163749999Y-105150884D01*
X163742418Y-105152085D01*
X163742410Y-105152087D01*
X163577742Y-105205591D01*
X163423475Y-105284195D01*
X163283397Y-105385967D01*
X163160967Y-105508397D01*
X163059195Y-105648475D01*
X162980591Y-105802742D01*
X162927086Y-105967413D01*
X162926185Y-105971169D01*
X162891395Y-106031762D01*
X162829370Y-106063927D01*
X162759801Y-106057453D01*
X162704776Y-106014395D01*
X162691049Y-105989678D01*
X162645588Y-105879926D01*
X162641294Y-105873500D01*
X162565864Y-105760609D01*
X162565858Y-105760602D01*
X162464397Y-105659141D01*
X162464390Y-105659135D01*
X162345075Y-105579412D01*
X162212496Y-105524496D01*
X162212488Y-105524494D01*
X162071754Y-105496500D01*
X162071751Y-105496500D01*
X161928249Y-105496500D01*
X161928246Y-105496500D01*
X161787511Y-105524494D01*
X161787503Y-105524496D01*
X161654924Y-105579412D01*
X161535609Y-105659135D01*
X161535602Y-105659141D01*
X161434141Y-105760602D01*
X161434135Y-105760609D01*
X161354412Y-105879924D01*
X161299496Y-106012503D01*
X161299494Y-106012511D01*
X161271500Y-106153244D01*
X160728499Y-106153244D01*
X160728499Y-105839078D01*
X160717781Y-105765507D01*
X160662301Y-105652021D01*
X160662299Y-105652019D01*
X160662299Y-105652018D01*
X160572978Y-105562697D01*
X160459496Y-105507220D01*
X160459494Y-105507219D01*
X160459493Y-105507219D01*
X160385923Y-105496500D01*
X160385917Y-105496500D01*
X159614076Y-105496500D01*
X159608741Y-105497278D01*
X159539565Y-105487460D01*
X159503190Y-105462253D01*
X156453026Y-102412089D01*
X156419541Y-102350766D01*
X156419090Y-102300216D01*
X156429826Y-102246242D01*
X156436500Y-102212690D01*
X156436500Y-102087310D01*
X156412040Y-101964340D01*
X156364059Y-101848504D01*
X156364058Y-101848503D01*
X156364055Y-101848497D01*
X156294402Y-101744255D01*
X156294399Y-101744251D01*
X156205748Y-101655600D01*
X156205744Y-101655597D01*
X156101502Y-101585944D01*
X156101493Y-101585939D01*
X155985660Y-101537960D01*
X155985652Y-101537958D01*
X155862694Y-101513500D01*
X155862690Y-101513500D01*
X155737310Y-101513500D01*
X155737305Y-101513500D01*
X155614347Y-101537958D01*
X155614339Y-101537960D01*
X155498506Y-101585939D01*
X155498497Y-101585944D01*
X155394255Y-101655597D01*
X155394251Y-101655600D01*
X155305600Y-101744251D01*
X155305597Y-101744255D01*
X155235944Y-101848497D01*
X155235939Y-101848506D01*
X155187960Y-101964339D01*
X155187958Y-101964347D01*
X155163500Y-102087305D01*
X151953631Y-102087305D01*
X153622117Y-100418819D01*
X153683440Y-100385334D01*
X153709798Y-100382500D01*
X154880990Y-100382500D01*
X154948029Y-100402185D01*
X154968671Y-100418819D01*
X155044251Y-100494399D01*
X155044255Y-100494402D01*
X155148497Y-100564055D01*
X155148503Y-100564058D01*
X155148504Y-100564059D01*
X155264340Y-100612040D01*
X155369076Y-100632873D01*
X155387305Y-100636499D01*
X155387309Y-100636500D01*
X155387310Y-100636500D01*
X155512691Y-100636500D01*
X155512692Y-100636499D01*
X155635660Y-100612040D01*
X155751496Y-100564059D01*
X155855745Y-100494402D01*
X155944402Y-100405745D01*
X156014059Y-100301496D01*
X156062040Y-100185660D01*
X156086500Y-100062690D01*
X156086500Y-99937310D01*
X156062040Y-99814340D01*
X156014059Y-99698504D01*
X156014058Y-99698503D01*
X156014055Y-99698497D01*
X155944402Y-99594255D01*
X155944399Y-99594251D01*
X155855748Y-99505600D01*
X155855744Y-99505597D01*
X155751502Y-99435944D01*
X155751493Y-99435939D01*
X155635660Y-99387960D01*
X155635652Y-99387958D01*
X155512694Y-99363500D01*
X155512690Y-99363500D01*
X155387310Y-99363500D01*
X155387305Y-99363500D01*
X155264347Y-99387958D01*
X155264339Y-99387960D01*
X155148506Y-99435939D01*
X155148497Y-99435944D01*
X155044255Y-99505597D01*
X155044251Y-99505600D01*
X154968671Y-99581181D01*
X154907348Y-99614666D01*
X154880990Y-99617500D01*
X153557969Y-99617500D01*
X153557953Y-99617499D01*
X153550357Y-99617499D01*
X153449643Y-99617499D01*
X153391273Y-99633139D01*
X153352358Y-99643566D01*
X153352357Y-99643567D01*
X153265139Y-99693923D01*
X153190797Y-99768265D01*
X149153924Y-103805137D01*
X149153922Y-103805139D01*
X149137918Y-103832860D01*
X149108051Y-103884592D01*
X149107627Y-103885327D01*
X149103565Y-103892361D01*
X149077499Y-103989643D01*
X149077499Y-104100346D01*
X149077500Y-104100359D01*
X149077500Y-106897500D01*
X149057815Y-106964539D01*
X149005011Y-107010294D01*
X148953500Y-107021500D01*
X148597341Y-107021500D01*
X148559864Y-107028954D01*
X148559863Y-107028955D01*
X148517357Y-107057357D01*
X148488955Y-107099863D01*
X148488954Y-107099864D01*
X148481500Y-107137341D01*
X148481500Y-107493500D01*
X148461815Y-107560539D01*
X148409011Y-107606294D01*
X148357500Y-107617500D01*
X147527759Y-107617500D01*
X147522659Y-107616598D01*
X147519791Y-107617244D01*
X147506322Y-107613710D01*
X147485251Y-107609986D01*
X147473258Y-107605609D01*
X147468311Y-107602501D01*
X147381531Y-107572136D01*
X147380699Y-107571833D01*
X147353227Y-107551570D01*
X147325477Y-107531667D01*
X147325160Y-107530869D01*
X147324470Y-107530360D01*
X147312318Y-107498472D01*
X147299729Y-107466715D01*
X147299894Y-107465871D01*
X147299589Y-107465070D01*
X147306617Y-107431621D01*
X147313185Y-107398153D01*
X147313836Y-107397264D01*
X147313956Y-107396694D01*
X147315117Y-107395516D01*
X147335519Y-107367673D01*
X147599707Y-107103487D01*
X147599709Y-107103482D01*
X147605500Y-107097692D01*
X147605803Y-107097344D01*
X147614785Y-107088364D01*
X147652115Y-107028956D01*
X147691090Y-106966931D01*
X147697361Y-106949011D01*
X147738464Y-106831557D01*
X147754529Y-106689039D01*
X147738481Y-106546520D01*
X147738480Y-106546517D01*
X147738479Y-106546512D01*
X147704938Y-106450630D01*
X147691125Y-106411143D01*
X147687985Y-106406144D01*
X147614835Y-106289697D01*
X147605680Y-106280541D01*
X147605679Y-106280540D01*
X147599718Y-106274578D01*
X147599706Y-106274556D01*
X147564134Y-106238984D01*
X147525251Y-106200092D01*
X147525249Y-106200091D01*
X147519088Y-106193928D01*
X147519011Y-106193861D01*
X147448334Y-106123184D01*
X147412417Y-106100616D01*
X147326887Y-106046873D01*
X147228665Y-106012503D01*
X147191503Y-105999499D01*
X147191494Y-105999497D01*
X147048973Y-105983440D01*
X147048971Y-105983440D01*
X147048970Y-105983440D01*
X147042386Y-105984181D01*
X146973565Y-105972126D01*
X146922186Y-105924776D01*
X146904563Y-105857165D01*
X146905282Y-105847107D01*
X146906029Y-105840480D01*
X146889964Y-105697946D01*
X146842585Y-105562560D01*
X146842583Y-105562557D01*
X146842581Y-105562552D01*
X146766267Y-105441114D01*
X146766267Y-105441113D01*
X146766266Y-105441112D01*
X146730749Y-105405599D01*
X146614904Y-105289754D01*
X146599802Y-105274652D01*
X146599801Y-105274651D01*
X146563884Y-105252083D01*
X146478354Y-105198340D01*
X146461495Y-105192440D01*
X146342970Y-105150966D01*
X146342961Y-105150964D01*
X146200440Y-105134907D01*
X146200434Y-105134907D01*
X146193882Y-105135645D01*
X146125061Y-105123587D01*
X146073684Y-105076236D01*
X146056062Y-105008625D01*
X146056783Y-104998549D01*
X146057529Y-104991922D01*
X146044788Y-104878987D01*
X146041448Y-104849376D01*
X146041448Y-104849375D01*
X146017139Y-104779940D01*
X145994045Y-104713977D01*
X145987927Y-104704245D01*
X145917701Y-104592531D01*
X145917698Y-104592526D01*
X145869173Y-104544023D01*
X145766371Y-104441221D01*
X145751269Y-104426119D01*
X145751268Y-104426118D01*
X145715351Y-104403550D01*
X145629821Y-104349807D01*
X145612962Y-104343907D01*
X145494437Y-104302433D01*
X145494428Y-104302431D01*
X145351907Y-104286374D01*
X145351900Y-104286374D01*
X145345285Y-104287119D01*
X145276464Y-104275061D01*
X145225087Y-104227709D01*
X145207466Y-104160098D01*
X145208189Y-104150001D01*
X145208929Y-104143441D01*
X145192882Y-104000922D01*
X145192880Y-104000918D01*
X145192880Y-104000914D01*
X145145526Y-103865546D01*
X145145525Y-103865544D01*
X145111197Y-103810898D01*
X145069236Y-103744100D01*
X145060080Y-103734941D01*
X145054119Y-103728979D01*
X145054107Y-103728957D01*
X145015001Y-103689851D01*
X144979654Y-103654494D01*
X144979652Y-103654493D01*
X144973753Y-103648592D01*
X144973665Y-103648515D01*
X144902735Y-103577585D01*
X144866818Y-103555017D01*
X144781288Y-103501274D01*
X144759806Y-103493757D01*
X144645904Y-103453900D01*
X144645895Y-103453898D01*
X144503374Y-103437841D01*
X144503368Y-103437841D01*
X144360842Y-103453899D01*
X144225457Y-103501274D01*
X144104004Y-103577587D01*
X144061095Y-103620498D01*
X144061093Y-103620500D01*
X143883943Y-103797647D01*
X143822620Y-103831131D01*
X143752928Y-103826146D01*
X143708582Y-103797646D01*
X143540987Y-103630051D01*
X143319861Y-103408924D01*
X143205935Y-103294998D01*
X143172450Y-103233675D01*
X143177434Y-103163983D01*
X143179056Y-103159862D01*
X143180897Y-103155418D01*
X143218500Y-102966374D01*
X143218500Y-102773626D01*
X143206652Y-102714060D01*
X143180899Y-102584589D01*
X143180896Y-102584580D01*
X143107139Y-102406512D01*
X143107132Y-102406499D01*
X143000051Y-102246242D01*
X143000048Y-102246238D01*
X142863761Y-102109951D01*
X142863757Y-102109948D01*
X142703500Y-102002867D01*
X142703487Y-102002860D01*
X142525419Y-101929103D01*
X142525410Y-101929100D01*
X142336378Y-101891500D01*
X142336374Y-101891500D01*
X142143626Y-101891500D01*
X142143621Y-101891500D01*
X141954589Y-101929100D01*
X141954580Y-101929103D01*
X141776512Y-102002860D01*
X141776499Y-102002867D01*
X141616242Y-102109948D01*
X141616238Y-102109951D01*
X141479951Y-102246238D01*
X141479948Y-102246242D01*
X141372867Y-102406499D01*
X141372860Y-102406512D01*
X141299103Y-102584580D01*
X141299100Y-102584589D01*
X141261500Y-102773621D01*
X140678499Y-102773621D01*
X140666652Y-102714060D01*
X140640899Y-102584589D01*
X140640896Y-102584580D01*
X140567139Y-102406512D01*
X140567132Y-102406499D01*
X140460051Y-102246242D01*
X140460048Y-102246238D01*
X140323761Y-102109951D01*
X140323757Y-102109948D01*
X140163500Y-102002867D01*
X140163487Y-102002860D01*
X139985419Y-101929103D01*
X139985410Y-101929100D01*
X139796378Y-101891500D01*
X139796374Y-101891500D01*
X139603626Y-101891500D01*
X139603621Y-101891500D01*
X139414589Y-101929100D01*
X139414580Y-101929103D01*
X139236512Y-102002860D01*
X139236499Y-102002867D01*
X139076242Y-102109948D01*
X139076238Y-102109951D01*
X138939951Y-102246238D01*
X138939948Y-102246242D01*
X138832867Y-102406499D01*
X138832860Y-102406512D01*
X138759103Y-102584580D01*
X138759100Y-102584589D01*
X138721500Y-102773621D01*
X137650000Y-102773621D01*
X137650000Y-100233621D01*
X138721500Y-100233621D01*
X138721500Y-100426378D01*
X138759100Y-100615410D01*
X138759103Y-100615419D01*
X138832860Y-100793487D01*
X138832867Y-100793500D01*
X138939948Y-100953757D01*
X138939951Y-100953761D01*
X139076238Y-101090048D01*
X139076242Y-101090051D01*
X139236499Y-101197132D01*
X139236512Y-101197139D01*
X139370063Y-101252456D01*
X139414582Y-101270897D01*
X139414584Y-101270897D01*
X139414589Y-101270899D01*
X139603621Y-101308499D01*
X139603625Y-101308500D01*
X139603626Y-101308500D01*
X139796375Y-101308500D01*
X139796376Y-101308499D01*
X139859388Y-101295965D01*
X139985410Y-101270899D01*
X139985413Y-101270897D01*
X139985418Y-101270897D01*
X140163494Y-101197136D01*
X140323758Y-101090051D01*
X140460051Y-100953758D01*
X140567136Y-100793494D01*
X140640897Y-100615418D01*
X140641570Y-100612039D01*
X140678499Y-100426378D01*
X140678500Y-100426375D01*
X140678500Y-100233625D01*
X140678499Y-100233621D01*
X141261500Y-100233621D01*
X141261500Y-100426378D01*
X141299100Y-100615410D01*
X141299103Y-100615419D01*
X141372860Y-100793487D01*
X141372867Y-100793500D01*
X141479948Y-100953757D01*
X141479951Y-100953761D01*
X141616238Y-101090048D01*
X141616242Y-101090051D01*
X141776499Y-101197132D01*
X141776512Y-101197139D01*
X141910063Y-101252456D01*
X141954582Y-101270897D01*
X141954584Y-101270897D01*
X141954589Y-101270899D01*
X142143621Y-101308499D01*
X142143625Y-101308500D01*
X142143626Y-101308500D01*
X142336375Y-101308500D01*
X142336376Y-101308499D01*
X142399388Y-101295965D01*
X142525410Y-101270899D01*
X142525413Y-101270897D01*
X142525418Y-101270897D01*
X142703494Y-101197136D01*
X142863758Y-101090051D01*
X143000051Y-100953758D01*
X143107136Y-100793494D01*
X143110636Y-100785045D01*
X143154478Y-100730642D01*
X143220773Y-100708579D01*
X143225196Y-100708500D01*
X146419828Y-100708500D01*
X146419830Y-100708500D01*
X146516096Y-100682706D01*
X146537673Y-100670248D01*
X146559248Y-100657792D01*
X146559250Y-100657790D01*
X146602405Y-100632875D01*
X152370461Y-94864819D01*
X152431784Y-94831334D01*
X152458142Y-94828500D01*
X155549828Y-94828500D01*
X155549830Y-94828500D01*
X155646096Y-94802706D01*
X155706909Y-94767595D01*
X155732405Y-94752875D01*
X155970460Y-94514818D01*
X156031783Y-94481334D01*
X156058141Y-94478500D01*
X156161904Y-94478500D01*
X156161905Y-94478499D01*
X156283327Y-94454347D01*
X156397706Y-94406969D01*
X156500645Y-94338188D01*
X156588188Y-94250645D01*
X156656969Y-94147706D01*
X156704347Y-94033327D01*
X156728500Y-93911902D01*
X156728500Y-93788098D01*
X156728500Y-93788095D01*
X156728499Y-93788093D01*
X156718878Y-93739727D01*
X156704347Y-93666673D01*
X156656969Y-93552294D01*
X156588188Y-93449355D01*
X156588186Y-93449352D01*
X156500647Y-93361813D01*
X156397705Y-93293030D01*
X156283327Y-93245653D01*
X156283319Y-93245651D01*
X156161905Y-93221500D01*
X156161902Y-93221500D01*
X156038098Y-93221500D01*
X156038095Y-93221500D01*
X155916680Y-93245651D01*
X155916672Y-93245653D01*
X155802294Y-93293030D01*
X155699352Y-93361813D01*
X155611813Y-93449352D01*
X155543030Y-93552294D01*
X155495653Y-93666672D01*
X155495651Y-93666680D01*
X155471500Y-93788093D01*
X155471500Y-93891856D01*
X155462856Y-93921292D01*
X155456333Y-93951282D01*
X155452577Y-93956298D01*
X155451815Y-93958895D01*
X155435182Y-93979536D01*
X155379539Y-94035180D01*
X155318216Y-94068666D01*
X155291857Y-94071500D01*
X152200170Y-94071500D01*
X152103904Y-94097294D01*
X152103901Y-94097295D01*
X152060750Y-94122208D01*
X152060750Y-94122209D01*
X152017595Y-94147125D01*
X152017592Y-94147127D01*
X146249539Y-99915181D01*
X146188216Y-99948666D01*
X146161858Y-99951500D01*
X143225196Y-99951500D01*
X143158157Y-99931815D01*
X143112402Y-99879011D01*
X143110636Y-99874955D01*
X143107138Y-99866512D01*
X143107136Y-99866506D01*
X143107131Y-99866499D01*
X143000051Y-99706241D01*
X142863761Y-99569951D01*
X142863757Y-99569948D01*
X142703500Y-99462867D01*
X142703487Y-99462860D01*
X142525419Y-99389103D01*
X142525410Y-99389100D01*
X142336378Y-99351500D01*
X142336374Y-99351500D01*
X142143626Y-99351500D01*
X142143621Y-99351500D01*
X141954589Y-99389100D01*
X141954580Y-99389103D01*
X141776512Y-99462860D01*
X141776499Y-99462867D01*
X141616242Y-99569948D01*
X141616238Y-99569951D01*
X141479951Y-99706238D01*
X141479948Y-99706242D01*
X141372867Y-99866499D01*
X141372860Y-99866512D01*
X141299103Y-100044580D01*
X141299100Y-100044589D01*
X141261500Y-100233621D01*
X140678499Y-100233621D01*
X140640899Y-100044589D01*
X140640896Y-100044580D01*
X140567139Y-99866512D01*
X140567132Y-99866499D01*
X140460051Y-99706242D01*
X140460048Y-99706238D01*
X140323761Y-99569951D01*
X140323757Y-99569948D01*
X140163500Y-99462867D01*
X140163487Y-99462860D01*
X139985419Y-99389103D01*
X139985410Y-99389100D01*
X139796378Y-99351500D01*
X139796374Y-99351500D01*
X139603626Y-99351500D01*
X139603621Y-99351500D01*
X139414589Y-99389100D01*
X139414580Y-99389103D01*
X139236512Y-99462860D01*
X139236499Y-99462867D01*
X139076242Y-99569948D01*
X139076238Y-99569951D01*
X138939951Y-99706238D01*
X138939948Y-99706242D01*
X138832867Y-99866499D01*
X138832860Y-99866512D01*
X138759103Y-100044580D01*
X138759100Y-100044589D01*
X138721500Y-100233621D01*
X137650000Y-100233621D01*
X137650000Y-84840000D01*
X138372769Y-84840000D01*
X139266988Y-84840000D01*
X139234075Y-84897007D01*
X139200000Y-85024174D01*
X139200000Y-85155826D01*
X139234075Y-85282993D01*
X139266988Y-85340000D01*
X138372769Y-85340000D01*
X138383242Y-85406126D01*
X138383242Y-85406129D01*
X138448904Y-85608217D01*
X138545379Y-85797557D01*
X138670272Y-85969459D01*
X138670276Y-85969464D01*
X138820535Y-86119723D01*
X138820540Y-86119727D01*
X138992444Y-86244622D01*
X139002048Y-86249516D01*
X139052844Y-86297491D01*
X139069638Y-86365312D01*
X139047100Y-86431447D01*
X139002048Y-86470484D01*
X138992444Y-86475377D01*
X138820540Y-86600272D01*
X138820535Y-86600276D01*
X138670276Y-86750535D01*
X138670272Y-86750540D01*
X138545379Y-86922442D01*
X138448904Y-87111782D01*
X138383242Y-87313870D01*
X138383242Y-87313873D01*
X138372769Y-87380000D01*
X139266988Y-87380000D01*
X139234075Y-87437007D01*
X139200000Y-87564174D01*
X139200000Y-87695826D01*
X139234075Y-87822993D01*
X139266988Y-87880000D01*
X138372769Y-87880000D01*
X138383242Y-87946126D01*
X138383242Y-87946129D01*
X138448904Y-88148217D01*
X138545379Y-88337557D01*
X138670272Y-88509459D01*
X138670276Y-88509464D01*
X138820535Y-88659723D01*
X138820540Y-88659727D01*
X138992444Y-88784622D01*
X139002048Y-88789516D01*
X139052844Y-88837491D01*
X139069638Y-88905312D01*
X139047100Y-88971447D01*
X139002048Y-89010484D01*
X138992444Y-89015377D01*
X138820540Y-89140272D01*
X138820535Y-89140276D01*
X138670276Y-89290535D01*
X138670272Y-89290540D01*
X138545379Y-89462442D01*
X138448904Y-89651782D01*
X138383242Y-89853870D01*
X138383242Y-89853873D01*
X138372769Y-89920000D01*
X139266988Y-89920000D01*
X139234075Y-89977007D01*
X139200000Y-90104174D01*
X139200000Y-90235826D01*
X139234075Y-90362993D01*
X139266988Y-90420000D01*
X138372769Y-90420000D01*
X138383242Y-90486126D01*
X138383242Y-90486129D01*
X138448904Y-90688217D01*
X138545379Y-90877557D01*
X138670272Y-91049459D01*
X138670276Y-91049464D01*
X138820535Y-91199723D01*
X138820540Y-91199727D01*
X138992444Y-91324622D01*
X139002048Y-91329516D01*
X139052844Y-91377491D01*
X139069638Y-91445312D01*
X139047100Y-91511447D01*
X139002048Y-91550484D01*
X138992444Y-91555377D01*
X138820540Y-91680272D01*
X138820535Y-91680276D01*
X138670276Y-91830535D01*
X138670272Y-91830540D01*
X138545379Y-92002442D01*
X138448904Y-92191782D01*
X138383242Y-92393870D01*
X138383242Y-92393873D01*
X138372769Y-92460000D01*
X139266988Y-92460000D01*
X139234075Y-92517007D01*
X139200000Y-92644174D01*
X139200000Y-92775826D01*
X139234075Y-92902993D01*
X139266988Y-92960000D01*
X138372769Y-92960000D01*
X138383242Y-93026126D01*
X138383242Y-93026129D01*
X138448904Y-93228217D01*
X138545379Y-93417557D01*
X138670272Y-93589459D01*
X138670276Y-93589464D01*
X138820535Y-93739723D01*
X138820540Y-93739727D01*
X138992444Y-93864622D01*
X139002048Y-93869516D01*
X139052844Y-93917491D01*
X139069638Y-93985312D01*
X139047100Y-94051447D01*
X139002048Y-94090484D01*
X138992444Y-94095377D01*
X138820540Y-94220272D01*
X138820535Y-94220276D01*
X138670276Y-94370535D01*
X138670272Y-94370540D01*
X138545379Y-94542442D01*
X138448904Y-94731782D01*
X138383242Y-94933870D01*
X138383242Y-94933873D01*
X138372769Y-95000000D01*
X139266988Y-95000000D01*
X139234075Y-95057007D01*
X139200000Y-95184174D01*
X139200000Y-95315826D01*
X139234075Y-95442993D01*
X139266988Y-95500000D01*
X138372769Y-95500000D01*
X138383242Y-95566126D01*
X138383242Y-95566129D01*
X138448904Y-95768217D01*
X138545379Y-95957557D01*
X138670272Y-96129459D01*
X138670276Y-96129464D01*
X138820535Y-96279723D01*
X138820540Y-96279727D01*
X138992442Y-96404620D01*
X139181782Y-96501095D01*
X139383869Y-96566757D01*
X139383873Y-96566758D01*
X139505366Y-96586000D01*
X139568501Y-96615929D01*
X139605433Y-96675240D01*
X139604435Y-96745103D01*
X139565826Y-96803335D01*
X139510161Y-96830090D01*
X139414588Y-96849101D01*
X139414580Y-96849103D01*
X139236512Y-96922860D01*
X139236499Y-96922867D01*
X139076242Y-97029948D01*
X139076238Y-97029951D01*
X138939951Y-97166238D01*
X138939948Y-97166242D01*
X138832867Y-97326499D01*
X138832860Y-97326512D01*
X138759103Y-97504580D01*
X138759100Y-97504589D01*
X138721500Y-97693621D01*
X138721500Y-97886378D01*
X138759100Y-98075410D01*
X138759103Y-98075419D01*
X138832860Y-98253487D01*
X138832867Y-98253500D01*
X138939948Y-98413757D01*
X138939951Y-98413761D01*
X139076238Y-98550048D01*
X139076242Y-98550051D01*
X139236499Y-98657132D01*
X139236512Y-98657139D01*
X139370063Y-98712456D01*
X139414582Y-98730897D01*
X139414584Y-98730897D01*
X139414589Y-98730899D01*
X139603621Y-98768499D01*
X139603625Y-98768500D01*
X139603626Y-98768500D01*
X139796375Y-98768500D01*
X139796376Y-98768499D01*
X139859388Y-98755965D01*
X139985410Y-98730899D01*
X139985413Y-98730897D01*
X139985418Y-98730897D01*
X140163494Y-98657136D01*
X140323758Y-98550051D01*
X140460051Y-98413758D01*
X140567136Y-98253494D01*
X140640897Y-98075418D01*
X140678500Y-97886374D01*
X140678500Y-97693626D01*
X140678499Y-97693621D01*
X141261500Y-97693621D01*
X141261500Y-97886378D01*
X141299100Y-98075410D01*
X141299103Y-98075419D01*
X141372860Y-98253487D01*
X141372867Y-98253500D01*
X141479948Y-98413757D01*
X141479951Y-98413761D01*
X141616238Y-98550048D01*
X141616242Y-98550051D01*
X141776499Y-98657132D01*
X141776512Y-98657139D01*
X141910063Y-98712456D01*
X141954582Y-98730897D01*
X141954584Y-98730897D01*
X141954589Y-98730899D01*
X142143621Y-98768499D01*
X142143625Y-98768500D01*
X142143626Y-98768500D01*
X142336375Y-98768500D01*
X142336376Y-98768499D01*
X142399388Y-98755965D01*
X142525410Y-98730899D01*
X142525413Y-98730897D01*
X142525418Y-98730897D01*
X142703494Y-98657136D01*
X142863758Y-98550051D01*
X143000051Y-98413758D01*
X143107136Y-98253494D01*
X143180897Y-98075418D01*
X143218500Y-97886374D01*
X143218500Y-97693626D01*
X143213622Y-97669101D01*
X143180899Y-97504589D01*
X143180896Y-97504580D01*
X143107139Y-97326512D01*
X143107132Y-97326499D01*
X143000051Y-97166242D01*
X143000048Y-97166238D01*
X142863761Y-97029951D01*
X142863757Y-97029948D01*
X142703500Y-96922867D01*
X142703487Y-96922860D01*
X142525419Y-96849103D01*
X142525410Y-96849100D01*
X142336378Y-96811500D01*
X142336374Y-96811500D01*
X142143626Y-96811500D01*
X142143621Y-96811500D01*
X141954589Y-96849100D01*
X141954580Y-96849103D01*
X141776512Y-96922860D01*
X141776499Y-96922867D01*
X141616242Y-97029948D01*
X141616238Y-97029951D01*
X141479951Y-97166238D01*
X141479948Y-97166242D01*
X141372867Y-97326499D01*
X141372860Y-97326512D01*
X141299103Y-97504580D01*
X141299100Y-97504589D01*
X141261500Y-97693621D01*
X140678499Y-97693621D01*
X140673622Y-97669101D01*
X140640899Y-97504589D01*
X140640896Y-97504580D01*
X140567139Y-97326512D01*
X140567132Y-97326499D01*
X140460051Y-97166242D01*
X140460048Y-97166238D01*
X140323761Y-97029951D01*
X140323757Y-97029948D01*
X140163500Y-96922867D01*
X140163487Y-96922860D01*
X139985419Y-96849103D01*
X139985411Y-96849101D01*
X139889838Y-96830090D01*
X139827927Y-96797705D01*
X139793353Y-96736989D01*
X139797094Y-96667219D01*
X139837960Y-96610548D01*
X139894633Y-96586000D01*
X140016126Y-96566758D01*
X140016130Y-96566757D01*
X140218217Y-96501095D01*
X140407557Y-96404620D01*
X140579459Y-96279727D01*
X140579464Y-96279723D01*
X140729723Y-96129464D01*
X140729727Y-96129459D01*
X140854620Y-95957557D01*
X140951095Y-95768217D01*
X141016757Y-95566130D01*
X141016758Y-95566126D01*
X141036000Y-95444633D01*
X141065929Y-95381498D01*
X141125240Y-95344566D01*
X141195102Y-95345564D01*
X141253335Y-95384173D01*
X141280090Y-95439838D01*
X141299101Y-95535411D01*
X141299103Y-95535419D01*
X141372860Y-95713487D01*
X141372867Y-95713500D01*
X141479948Y-95873757D01*
X141479951Y-95873761D01*
X141616238Y-96010048D01*
X141616242Y-96010051D01*
X141776499Y-96117132D01*
X141776512Y-96117139D01*
X141897114Y-96167093D01*
X141954582Y-96190897D01*
X141954584Y-96190897D01*
X141954589Y-96190899D01*
X142143621Y-96228499D01*
X142143625Y-96228500D01*
X142143626Y-96228500D01*
X142336375Y-96228500D01*
X142336376Y-96228499D01*
X142399388Y-96215965D01*
X142525410Y-96190899D01*
X142525413Y-96190897D01*
X142525418Y-96190897D01*
X142703494Y-96117136D01*
X142863758Y-96010051D01*
X143000051Y-95873758D01*
X143107136Y-95713494D01*
X143180897Y-95535418D01*
X143180897Y-95535413D01*
X143180899Y-95535410D01*
X143218499Y-95346378D01*
X143218500Y-95346375D01*
X143218500Y-95153625D01*
X143218499Y-95153621D01*
X143180899Y-94964589D01*
X143180896Y-94964580D01*
X143107139Y-94786512D01*
X143107132Y-94786499D01*
X143000051Y-94626242D01*
X143000048Y-94626238D01*
X142863761Y-94489951D01*
X142863757Y-94489948D01*
X142703500Y-94382867D01*
X142703487Y-94382860D01*
X142525419Y-94309103D01*
X142525410Y-94309100D01*
X142336378Y-94271500D01*
X142336374Y-94271500D01*
X142143626Y-94271500D01*
X142143621Y-94271500D01*
X141954589Y-94309100D01*
X141954580Y-94309103D01*
X141776512Y-94382860D01*
X141776499Y-94382867D01*
X141616242Y-94489948D01*
X141616238Y-94489951D01*
X141479951Y-94626238D01*
X141479948Y-94626242D01*
X141372867Y-94786499D01*
X141372860Y-94786512D01*
X141299103Y-94964580D01*
X141299101Y-94964588D01*
X141280090Y-95060161D01*
X141247705Y-95122072D01*
X141186989Y-95156646D01*
X141117219Y-95152905D01*
X141060547Y-95112039D01*
X141036000Y-95055366D01*
X141016758Y-94933873D01*
X141016757Y-94933869D01*
X140951095Y-94731782D01*
X140854620Y-94542442D01*
X140729727Y-94370540D01*
X140729723Y-94370535D01*
X140579464Y-94220276D01*
X140579459Y-94220272D01*
X140407558Y-94095379D01*
X140397954Y-94090486D01*
X140347157Y-94042512D01*
X140330361Y-93974692D01*
X140352897Y-93908556D01*
X140397954Y-93869514D01*
X140407558Y-93864620D01*
X140579459Y-93739727D01*
X140579464Y-93739723D01*
X140729723Y-93589464D01*
X140729727Y-93589459D01*
X140854620Y-93417557D01*
X140951095Y-93228217D01*
X141016757Y-93026130D01*
X141016758Y-93026126D01*
X141036000Y-92904633D01*
X141065929Y-92841498D01*
X141125240Y-92804566D01*
X141195102Y-92805564D01*
X141253335Y-92844173D01*
X141280090Y-92899838D01*
X141299101Y-92995411D01*
X141299103Y-92995419D01*
X141372860Y-93173487D01*
X141372867Y-93173500D01*
X141479948Y-93333757D01*
X141479951Y-93333761D01*
X141616238Y-93470048D01*
X141616242Y-93470051D01*
X141776499Y-93577132D01*
X141776512Y-93577139D01*
X141885100Y-93622117D01*
X141954582Y-93650897D01*
X141954584Y-93650897D01*
X141954589Y-93650899D01*
X142143621Y-93688499D01*
X142143625Y-93688500D01*
X142143626Y-93688500D01*
X142336375Y-93688500D01*
X142336376Y-93688499D01*
X142399388Y-93675965D01*
X142525410Y-93650899D01*
X142525413Y-93650897D01*
X142525418Y-93650897D01*
X142703494Y-93577136D01*
X142863758Y-93470051D01*
X143000051Y-93333758D01*
X143070571Y-93228217D01*
X143100378Y-93183609D01*
X143153990Y-93138804D01*
X143203480Y-93128500D01*
X150588304Y-93128500D01*
X150655343Y-93148185D01*
X150675985Y-93164819D01*
X150749352Y-93238186D01*
X150749355Y-93238188D01*
X150852294Y-93306969D01*
X150966673Y-93354347D01*
X151088093Y-93378499D01*
X151088096Y-93378500D01*
X151088098Y-93378500D01*
X151211904Y-93378500D01*
X151211905Y-93378499D01*
X151333327Y-93354347D01*
X151447706Y-93306969D01*
X151550645Y-93238188D01*
X151638188Y-93150645D01*
X151706969Y-93047706D01*
X151754347Y-92933327D01*
X151778500Y-92811902D01*
X151778500Y-92688098D01*
X151778500Y-92688095D01*
X151778499Y-92688093D01*
X151764287Y-92616646D01*
X151754347Y-92566673D01*
X151706969Y-92452294D01*
X151638188Y-92349355D01*
X151638186Y-92349352D01*
X151550647Y-92261813D01*
X151447705Y-92193030D01*
X151333327Y-92145653D01*
X151333319Y-92145651D01*
X151211905Y-92121500D01*
X151211902Y-92121500D01*
X151088098Y-92121500D01*
X151088095Y-92121500D01*
X150966680Y-92145651D01*
X150966672Y-92145653D01*
X150852294Y-92193030D01*
X150749352Y-92261813D01*
X150749349Y-92261816D01*
X150675985Y-92335181D01*
X150614662Y-92368666D01*
X150588304Y-92371500D01*
X143241764Y-92371500D01*
X143174725Y-92351815D01*
X143128970Y-92299011D01*
X143127220Y-92294994D01*
X143107136Y-92246506D01*
X143107134Y-92246503D01*
X143107132Y-92246499D01*
X143000051Y-92086242D01*
X143000048Y-92086238D01*
X142863761Y-91949951D01*
X142863757Y-91949948D01*
X142703500Y-91842867D01*
X142703487Y-91842860D01*
X142525419Y-91769103D01*
X142525410Y-91769100D01*
X142336378Y-91731500D01*
X142336374Y-91731500D01*
X142143626Y-91731500D01*
X142143621Y-91731500D01*
X141954589Y-91769100D01*
X141954580Y-91769103D01*
X141776512Y-91842860D01*
X141776499Y-91842867D01*
X141616242Y-91949948D01*
X141616238Y-91949951D01*
X141479951Y-92086238D01*
X141479948Y-92086242D01*
X141372867Y-92246499D01*
X141372860Y-92246512D01*
X141299103Y-92424580D01*
X141299101Y-92424588D01*
X141280090Y-92520161D01*
X141247705Y-92582072D01*
X141186989Y-92616646D01*
X141117219Y-92612905D01*
X141060547Y-92572039D01*
X141036000Y-92515366D01*
X141016758Y-92393873D01*
X141016757Y-92393869D01*
X140951095Y-92191782D01*
X140854620Y-92002442D01*
X140729727Y-91830540D01*
X140729723Y-91830535D01*
X140579464Y-91680276D01*
X140579459Y-91680272D01*
X140407558Y-91555379D01*
X140397954Y-91550486D01*
X140347157Y-91502512D01*
X140330361Y-91434692D01*
X140352897Y-91368556D01*
X140397954Y-91329514D01*
X140407558Y-91324620D01*
X140579459Y-91199727D01*
X140579464Y-91199723D01*
X140729723Y-91049464D01*
X140729727Y-91049459D01*
X140854620Y-90877557D01*
X140951095Y-90688217D01*
X141016757Y-90486130D01*
X141016758Y-90486126D01*
X141036000Y-90364633D01*
X141065929Y-90301498D01*
X141125240Y-90264566D01*
X141195102Y-90265564D01*
X141253335Y-90304173D01*
X141280090Y-90359838D01*
X141299101Y-90455411D01*
X141299103Y-90455419D01*
X141372860Y-90633487D01*
X141372867Y-90633500D01*
X141479948Y-90793757D01*
X141479951Y-90793761D01*
X141616238Y-90930048D01*
X141616242Y-90930051D01*
X141776499Y-91037132D01*
X141776512Y-91037139D01*
X141910063Y-91092456D01*
X141954582Y-91110897D01*
X141954584Y-91110897D01*
X141954589Y-91110899D01*
X142143621Y-91148499D01*
X142143625Y-91148500D01*
X142143626Y-91148500D01*
X142336375Y-91148500D01*
X142336376Y-91148499D01*
X142399388Y-91135965D01*
X142525410Y-91110899D01*
X142525413Y-91110897D01*
X142525418Y-91110897D01*
X142703494Y-91037136D01*
X142863758Y-90930051D01*
X143000051Y-90793758D01*
X143107136Y-90633494D01*
X143110636Y-90625045D01*
X143154478Y-90570642D01*
X143220773Y-90548579D01*
X143225196Y-90548500D01*
X155300170Y-90548500D01*
X155443500Y-90548500D01*
X155510539Y-90568185D01*
X155556294Y-90620989D01*
X155567500Y-90672500D01*
X155567500Y-91799639D01*
X155567499Y-91799643D01*
X155567499Y-91900357D01*
X155591075Y-91988342D01*
X155593335Y-91996779D01*
X155593336Y-91996784D01*
X155593564Y-91997636D01*
X155593565Y-91997638D01*
X155593566Y-91997640D01*
X155623698Y-92049830D01*
X155643924Y-92084862D01*
X155722204Y-92163142D01*
X155722210Y-92163147D01*
X156289583Y-92730519D01*
X156289604Y-92730542D01*
X157181181Y-93622117D01*
X157214666Y-93683440D01*
X157217500Y-93709798D01*
X157217500Y-98199643D01*
X157217500Y-98439639D01*
X157217499Y-98439643D01*
X157217499Y-98540357D01*
X157242189Y-98632500D01*
X157243566Y-98637640D01*
X157293923Y-98724861D01*
X157293925Y-98724863D01*
X157372204Y-98803142D01*
X157372210Y-98803147D01*
X159294064Y-100725001D01*
X159327549Y-100786324D01*
X159322565Y-100856016D01*
X159320947Y-100860129D01*
X159319102Y-100864581D01*
X159319101Y-100864584D01*
X159281500Y-101053621D01*
X159281500Y-101246378D01*
X159319100Y-101435410D01*
X159319103Y-101435419D01*
X159392860Y-101613487D01*
X159392867Y-101613500D01*
X159499948Y-101773757D01*
X159499951Y-101773761D01*
X159636238Y-101910048D01*
X159636242Y-101910051D01*
X159796499Y-102017132D01*
X159796512Y-102017139D01*
X159876180Y-102050138D01*
X159974582Y-102090897D01*
X159974584Y-102090897D01*
X159974589Y-102090899D01*
X160163621Y-102128499D01*
X160163625Y-102128500D01*
X160163626Y-102128500D01*
X160356375Y-102128500D01*
X160356376Y-102128499D01*
X160449642Y-102109948D01*
X160545410Y-102090899D01*
X160545413Y-102090897D01*
X160545418Y-102090897D01*
X160723494Y-102017136D01*
X160883758Y-101910051D01*
X161020051Y-101773758D01*
X161127136Y-101613494D01*
X161200897Y-101435418D01*
X161238500Y-101246374D01*
X161238500Y-101053626D01*
X161218635Y-100953757D01*
X161200899Y-100864589D01*
X161200896Y-100864581D01*
X161167952Y-100785045D01*
X161127139Y-100686512D01*
X161127132Y-100686499D01*
X161020051Y-100526242D01*
X161020048Y-100526238D01*
X160883761Y-100389951D01*
X160883757Y-100389948D01*
X160723500Y-100282867D01*
X160723487Y-100282860D01*
X160545419Y-100209103D01*
X160545410Y-100209100D01*
X160356378Y-100171500D01*
X160356374Y-100171500D01*
X160163626Y-100171500D01*
X160163621Y-100171500D01*
X159974584Y-100209101D01*
X159974581Y-100209102D01*
X159970129Y-100210947D01*
X159900659Y-100218412D01*
X159838181Y-100187134D01*
X159835001Y-100184064D01*
X158164558Y-98513621D01*
X159281500Y-98513621D01*
X159281500Y-98706378D01*
X159319100Y-98895410D01*
X159319103Y-98895419D01*
X159392860Y-99073487D01*
X159392867Y-99073500D01*
X159499948Y-99233757D01*
X159499951Y-99233761D01*
X159636238Y-99370048D01*
X159636242Y-99370051D01*
X159796499Y-99477132D01*
X159796512Y-99477139D01*
X159930063Y-99532456D01*
X159974582Y-99550897D01*
X159974584Y-99550897D01*
X159974589Y-99550899D01*
X160163621Y-99588499D01*
X160163625Y-99588500D01*
X160163626Y-99588500D01*
X160356375Y-99588500D01*
X160356376Y-99588499D01*
X160449642Y-99569948D01*
X160545410Y-99550899D01*
X160545413Y-99550897D01*
X160545418Y-99550897D01*
X160723494Y-99477136D01*
X160883758Y-99370051D01*
X161020051Y-99233758D01*
X161127136Y-99073494D01*
X161200897Y-98895418D01*
X161238500Y-98706374D01*
X161238500Y-98513626D01*
X161238165Y-98511942D01*
X161200899Y-98324589D01*
X161200896Y-98324580D01*
X161127139Y-98146512D01*
X161127132Y-98146499D01*
X161020051Y-97986242D01*
X161020048Y-97986238D01*
X160883761Y-97849951D01*
X160883757Y-97849948D01*
X160723500Y-97742867D01*
X160723487Y-97742860D01*
X160545419Y-97669103D01*
X160545410Y-97669100D01*
X160356378Y-97631500D01*
X160356374Y-97631500D01*
X160163626Y-97631500D01*
X160163621Y-97631500D01*
X159974589Y-97669100D01*
X159974580Y-97669103D01*
X159796512Y-97742860D01*
X159796499Y-97742867D01*
X159636242Y-97849948D01*
X159636238Y-97849951D01*
X159499951Y-97986238D01*
X159499948Y-97986242D01*
X159392867Y-98146499D01*
X159392860Y-98146512D01*
X159319103Y-98324580D01*
X159319100Y-98324589D01*
X159281500Y-98513621D01*
X158164558Y-98513621D01*
X158018819Y-98367882D01*
X157985334Y-98306559D01*
X157982500Y-98280201D01*
X157982500Y-95973621D01*
X159281500Y-95973621D01*
X159281500Y-96166378D01*
X159319100Y-96355410D01*
X159319103Y-96355419D01*
X159392860Y-96533487D01*
X159392867Y-96533500D01*
X159499948Y-96693757D01*
X159499951Y-96693761D01*
X159636238Y-96830048D01*
X159636242Y-96830051D01*
X159796499Y-96937132D01*
X159796512Y-96937139D01*
X159930063Y-96992456D01*
X159974582Y-97010897D01*
X159974584Y-97010897D01*
X159974589Y-97010899D01*
X160163621Y-97048499D01*
X160163625Y-97048500D01*
X160163626Y-97048500D01*
X160356375Y-97048500D01*
X160356376Y-97048499D01*
X160449642Y-97029948D01*
X160545410Y-97010899D01*
X160545413Y-97010897D01*
X160545418Y-97010897D01*
X160723494Y-96937136D01*
X160883758Y-96830051D01*
X161020051Y-96693758D01*
X161127136Y-96533494D01*
X161200897Y-96355418D01*
X161205067Y-96334457D01*
X161219909Y-96259839D01*
X161252293Y-96197928D01*
X161313009Y-96163354D01*
X161382779Y-96167093D01*
X161439451Y-96207959D01*
X161463999Y-96264632D01*
X161483242Y-96386127D01*
X161483242Y-96386130D01*
X161548904Y-96588217D01*
X161645375Y-96777550D01*
X161684728Y-96831716D01*
X162317037Y-96199408D01*
X162334075Y-96262993D01*
X162399901Y-96377007D01*
X162492993Y-96470099D01*
X162607007Y-96535925D01*
X162670589Y-96552962D01*
X162038282Y-97185269D01*
X162038282Y-97185270D01*
X162092449Y-97224624D01*
X162281782Y-97321095D01*
X162483869Y-97386757D01*
X162483873Y-97386758D01*
X162605366Y-97406000D01*
X162668501Y-97435929D01*
X162705433Y-97495240D01*
X162704435Y-97565103D01*
X162665826Y-97623335D01*
X162610161Y-97650090D01*
X162514588Y-97669101D01*
X162514580Y-97669103D01*
X162336512Y-97742860D01*
X162336499Y-97742867D01*
X162176242Y-97849948D01*
X162176238Y-97849951D01*
X162039951Y-97986238D01*
X162039948Y-97986242D01*
X161932867Y-98146499D01*
X161932860Y-98146512D01*
X161859103Y-98324580D01*
X161859100Y-98324589D01*
X161821500Y-98513621D01*
X161821500Y-98706378D01*
X161859100Y-98895410D01*
X161859103Y-98895419D01*
X161932860Y-99073487D01*
X161932867Y-99073500D01*
X162039948Y-99233757D01*
X162039951Y-99233761D01*
X162176238Y-99370048D01*
X162176242Y-99370051D01*
X162336499Y-99477132D01*
X162336512Y-99477139D01*
X162470063Y-99532456D01*
X162514582Y-99550897D01*
X162514584Y-99550897D01*
X162514589Y-99550899D01*
X162703621Y-99588499D01*
X162703625Y-99588500D01*
X162703626Y-99588500D01*
X162896375Y-99588500D01*
X162896376Y-99588499D01*
X162989642Y-99569948D01*
X163085410Y-99550899D01*
X163085413Y-99550897D01*
X163085418Y-99550897D01*
X163263494Y-99477136D01*
X163423758Y-99370051D01*
X163560051Y-99233758D01*
X163667136Y-99073494D01*
X163740897Y-98895418D01*
X163778500Y-98706374D01*
X163778500Y-98513626D01*
X163740897Y-98324582D01*
X163737399Y-98316139D01*
X163729927Y-98246672D01*
X163761198Y-98184191D01*
X163764247Y-98181031D01*
X164802875Y-97142405D01*
X164827790Y-97099250D01*
X164852706Y-97056096D01*
X164878500Y-96959830D01*
X164878500Y-95561695D01*
X164898185Y-95494656D01*
X164914814Y-95474018D01*
X164988188Y-95400645D01*
X165056969Y-95297706D01*
X165104347Y-95183327D01*
X165128500Y-95061902D01*
X165128500Y-94938098D01*
X165128500Y-94938095D01*
X165128499Y-94938093D01*
X165107263Y-94831334D01*
X165104347Y-94816673D01*
X165056969Y-94702294D01*
X164988188Y-94599355D01*
X164988186Y-94599352D01*
X164900647Y-94511813D01*
X164797705Y-94443030D01*
X164683327Y-94395653D01*
X164683319Y-94395651D01*
X164561905Y-94371500D01*
X164561902Y-94371500D01*
X164458142Y-94371500D01*
X164391103Y-94351815D01*
X164370461Y-94335181D01*
X161989714Y-91954434D01*
X161956229Y-91893111D01*
X161961213Y-91823419D01*
X162003085Y-91767486D01*
X162008480Y-91763667D01*
X162073758Y-91720051D01*
X162210051Y-91583758D01*
X162317136Y-91423494D01*
X162390897Y-91245418D01*
X162399986Y-91199727D01*
X162428499Y-91056378D01*
X162428500Y-91056375D01*
X162428500Y-90863625D01*
X162428499Y-90863621D01*
X162390899Y-90674589D01*
X162390896Y-90674580D01*
X162390034Y-90672500D01*
X162343314Y-90559706D01*
X162317139Y-90496512D01*
X162317132Y-90496499D01*
X162210051Y-90336242D01*
X162210048Y-90336238D01*
X162073761Y-90199951D01*
X162073757Y-90199948D01*
X161913500Y-90092867D01*
X161913487Y-90092860D01*
X161735419Y-90019103D01*
X161735410Y-90019100D01*
X161546378Y-89981500D01*
X161546374Y-89981500D01*
X161353626Y-89981500D01*
X161353621Y-89981500D01*
X161164589Y-90019100D01*
X161164580Y-90019103D01*
X160986512Y-90092860D01*
X160986499Y-90092867D01*
X160826242Y-90199948D01*
X160826238Y-90199951D01*
X160689951Y-90336238D01*
X160689948Y-90336242D01*
X160582867Y-90496499D01*
X160582860Y-90496512D01*
X160509103Y-90674580D01*
X160509100Y-90674589D01*
X160471500Y-90863621D01*
X160471500Y-91056378D01*
X160509100Y-91245410D01*
X160509103Y-91245419D01*
X160582860Y-91423487D01*
X160582867Y-91423500D01*
X160689948Y-91583757D01*
X160689951Y-91583761D01*
X160826241Y-91720051D01*
X160945354Y-91799639D01*
X160986506Y-91827136D01*
X161044953Y-91851345D01*
X161099355Y-91895183D01*
X161121421Y-91961477D01*
X161121500Y-91965905D01*
X161121500Y-92049830D01*
X161140704Y-92121500D01*
X161147294Y-92146096D01*
X161153057Y-92156077D01*
X161153057Y-92156078D01*
X161197125Y-92232405D01*
X161197127Y-92232407D01*
X163755800Y-94791080D01*
X163789285Y-94852403D01*
X163784301Y-94922095D01*
X163742429Y-94978028D01*
X163676965Y-95002445D01*
X163608692Y-94987593D01*
X163595234Y-94979079D01*
X163507557Y-94915379D01*
X163318217Y-94818904D01*
X163116129Y-94753242D01*
X162906246Y-94720000D01*
X162693754Y-94720000D01*
X162483872Y-94753242D01*
X162483869Y-94753242D01*
X162281782Y-94818904D01*
X162092439Y-94915380D01*
X162038282Y-94954727D01*
X162038282Y-94954728D01*
X162670591Y-95587037D01*
X162607007Y-95604075D01*
X162492993Y-95669901D01*
X162399901Y-95762993D01*
X162334075Y-95877007D01*
X162317037Y-95940591D01*
X161684728Y-95308282D01*
X161684727Y-95308282D01*
X161645380Y-95362439D01*
X161548904Y-95551782D01*
X161483242Y-95753869D01*
X161483242Y-95753872D01*
X161463999Y-95875367D01*
X161434070Y-95938502D01*
X161374758Y-95975433D01*
X161304896Y-95974435D01*
X161246663Y-95935825D01*
X161219909Y-95880160D01*
X161200899Y-95784589D01*
X161200896Y-95784580D01*
X161127139Y-95606512D01*
X161127132Y-95606499D01*
X161020051Y-95446242D01*
X161020048Y-95446238D01*
X160883761Y-95309951D01*
X160883757Y-95309948D01*
X160723500Y-95202867D01*
X160723487Y-95202860D01*
X160545419Y-95129103D01*
X160545410Y-95129100D01*
X160356378Y-95091500D01*
X160356374Y-95091500D01*
X160163626Y-95091500D01*
X160163621Y-95091500D01*
X159974589Y-95129100D01*
X159974580Y-95129103D01*
X159796512Y-95202860D01*
X159796499Y-95202867D01*
X159636242Y-95309948D01*
X159636238Y-95309951D01*
X159499951Y-95446238D01*
X159499948Y-95446242D01*
X159392867Y-95606499D01*
X159392860Y-95606512D01*
X159319103Y-95784580D01*
X159319100Y-95784589D01*
X159281500Y-95973621D01*
X157982500Y-95973621D01*
X157982500Y-93567333D01*
X157982500Y-93550361D01*
X157982501Y-93550358D01*
X157982501Y-93449643D01*
X157961942Y-93372918D01*
X157956434Y-93352360D01*
X157906077Y-93265139D01*
X157834861Y-93193923D01*
X157834860Y-93193922D01*
X157829488Y-93188550D01*
X157829471Y-93188535D01*
X156830542Y-92189604D01*
X156830519Y-92189583D01*
X156368819Y-91727882D01*
X156335334Y-91666559D01*
X156332500Y-91640201D01*
X156332500Y-90672500D01*
X156352185Y-90605461D01*
X156404989Y-90559706D01*
X156456500Y-90548500D01*
X157034172Y-90548500D01*
X157101211Y-90568185D01*
X157146966Y-90620989D01*
X157158172Y-90672500D01*
X157158172Y-90977732D01*
X157158199Y-90978144D01*
X157158199Y-90990807D01*
X157158200Y-90990817D01*
X157189709Y-91128880D01*
X157251152Y-91256476D01*
X157339443Y-91367201D01*
X157339444Y-91367202D01*
X157339446Y-91367204D01*
X157450163Y-91455509D01*
X157577754Y-91516966D01*
X157715820Y-91548493D01*
X157736823Y-91548495D01*
X157736842Y-91548500D01*
X157786629Y-91548500D01*
X157786630Y-91548500D01*
X157841050Y-91548506D01*
X157841052Y-91548505D01*
X157850042Y-91548506D01*
X157850139Y-91548500D01*
X157944752Y-91548500D01*
X157945070Y-91548478D01*
X157957446Y-91548480D01*
X158095532Y-91516976D01*
X158223145Y-91455534D01*
X158333884Y-91367234D01*
X158422196Y-91256505D01*
X158483653Y-91128899D01*
X158515172Y-90990817D01*
X158515172Y-90920000D01*
X158515172Y-90865580D01*
X158515172Y-90587849D01*
X158534857Y-90520810D01*
X158587661Y-90475055D01*
X158656819Y-90465111D01*
X158692980Y-90476132D01*
X158777754Y-90516966D01*
X158915820Y-90548493D01*
X158936823Y-90548495D01*
X158936842Y-90548500D01*
X158986629Y-90548500D01*
X158986630Y-90548500D01*
X159041050Y-90548506D01*
X159041052Y-90548505D01*
X159050042Y-90548506D01*
X159050139Y-90548500D01*
X159679828Y-90548500D01*
X159679830Y-90548500D01*
X159776096Y-90522706D01*
X159821475Y-90496506D01*
X159862405Y-90472875D01*
X160971505Y-89363773D01*
X161032826Y-89330290D01*
X161102517Y-89335274D01*
X161106628Y-89336891D01*
X161164582Y-89360897D01*
X161164584Y-89360897D01*
X161164589Y-89360899D01*
X161353621Y-89398499D01*
X161353625Y-89398500D01*
X161353626Y-89398500D01*
X161546375Y-89398500D01*
X161546376Y-89398499D01*
X161609388Y-89385965D01*
X161735410Y-89360899D01*
X161735413Y-89360897D01*
X161735418Y-89360897D01*
X161913494Y-89287136D01*
X162073758Y-89180051D01*
X162210051Y-89043758D01*
X162317136Y-88883494D01*
X162390897Y-88705418D01*
X162399986Y-88659727D01*
X162428499Y-88516378D01*
X162428500Y-88516375D01*
X162428500Y-88323625D01*
X162428499Y-88323621D01*
X162390899Y-88134589D01*
X162390896Y-88134580D01*
X162317139Y-87956512D01*
X162317132Y-87956499D01*
X162210051Y-87796242D01*
X162210048Y-87796238D01*
X162073761Y-87659951D01*
X162073757Y-87659948D01*
X161913500Y-87552867D01*
X161913487Y-87552860D01*
X161735419Y-87479103D01*
X161735411Y-87479101D01*
X161639838Y-87460090D01*
X161577927Y-87427705D01*
X161543353Y-87366989D01*
X161547094Y-87297219D01*
X161587960Y-87240548D01*
X161644633Y-87216000D01*
X161766126Y-87196758D01*
X161766130Y-87196757D01*
X161968217Y-87131095D01*
X162157554Y-87034622D01*
X162211716Y-86995270D01*
X162211717Y-86995270D01*
X161579408Y-86362962D01*
X161642993Y-86345925D01*
X161757007Y-86280099D01*
X161850099Y-86187007D01*
X161915925Y-86072993D01*
X161932962Y-86009409D01*
X162565270Y-86641717D01*
X162565270Y-86641716D01*
X162604622Y-86587554D01*
X162701095Y-86398217D01*
X162766757Y-86196130D01*
X162766757Y-86196127D01*
X162800000Y-85986246D01*
X162800000Y-85773753D01*
X162766757Y-85563872D01*
X162766757Y-85563869D01*
X162701095Y-85361782D01*
X162604624Y-85172449D01*
X162565270Y-85118282D01*
X162565269Y-85118282D01*
X161932962Y-85750590D01*
X161915925Y-85687007D01*
X161850099Y-85572993D01*
X161757007Y-85479901D01*
X161642993Y-85414075D01*
X161579409Y-85397037D01*
X162211716Y-84764728D01*
X162157550Y-84725375D01*
X161968217Y-84628904D01*
X161766129Y-84563242D01*
X161644632Y-84543999D01*
X161581497Y-84514070D01*
X161544566Y-84454758D01*
X161545564Y-84384896D01*
X161584174Y-84326663D01*
X161639839Y-84299909D01*
X161735410Y-84280899D01*
X161735413Y-84280897D01*
X161735418Y-84280897D01*
X161913494Y-84207136D01*
X162073758Y-84100051D01*
X162210051Y-83963758D01*
X162317136Y-83803494D01*
X162390897Y-83625418D01*
X162395355Y-83603009D01*
X162425762Y-83450138D01*
X162428500Y-83436374D01*
X162428500Y-83243626D01*
X162414603Y-83173761D01*
X162390899Y-83054589D01*
X162390896Y-83054580D01*
X162390034Y-83052500D01*
X162343314Y-82939706D01*
X162317139Y-82876512D01*
X162317132Y-82876499D01*
X162210051Y-82716242D01*
X162210048Y-82716238D01*
X162073761Y-82579951D01*
X162073757Y-82579948D01*
X161913500Y-82472867D01*
X161913487Y-82472860D01*
X161735419Y-82399103D01*
X161735410Y-82399100D01*
X161546378Y-82361500D01*
X161546374Y-82361500D01*
X161353626Y-82361500D01*
X161353621Y-82361500D01*
X161164589Y-82399100D01*
X161164580Y-82399103D01*
X160986512Y-82472860D01*
X160986499Y-82472867D01*
X160826242Y-82579948D01*
X160826238Y-82579951D01*
X160689951Y-82716238D01*
X160689948Y-82716242D01*
X160582867Y-82876499D01*
X160582860Y-82876512D01*
X160509103Y-83054580D01*
X160509100Y-83054589D01*
X160471500Y-83243621D01*
X160471500Y-83436378D01*
X160509100Y-83625410D01*
X160509103Y-83625419D01*
X160582860Y-83803487D01*
X160582867Y-83803500D01*
X160689948Y-83963757D01*
X160689951Y-83963761D01*
X160826238Y-84100048D01*
X160826242Y-84100051D01*
X160986499Y-84207132D01*
X160986512Y-84207139D01*
X161120063Y-84262456D01*
X161164582Y-84280897D01*
X161164584Y-84280897D01*
X161164589Y-84280899D01*
X161260160Y-84299909D01*
X161322071Y-84332294D01*
X161356645Y-84393009D01*
X161352906Y-84462779D01*
X161312040Y-84519451D01*
X161255367Y-84543999D01*
X161133872Y-84563242D01*
X161133869Y-84563242D01*
X160931782Y-84628904D01*
X160742439Y-84725380D01*
X160688282Y-84764727D01*
X160688282Y-84764728D01*
X161320591Y-85397037D01*
X161257007Y-85414075D01*
X161142993Y-85479901D01*
X161049901Y-85572993D01*
X160984075Y-85687007D01*
X160967037Y-85750591D01*
X160334728Y-85118282D01*
X160334727Y-85118282D01*
X160295380Y-85172439D01*
X160198904Y-85361782D01*
X160133242Y-85563869D01*
X160133242Y-85563872D01*
X160100000Y-85773753D01*
X160100000Y-85986246D01*
X160133242Y-86196127D01*
X160133242Y-86196130D01*
X160198904Y-86398217D01*
X160295375Y-86587550D01*
X160334728Y-86641716D01*
X160967037Y-86009408D01*
X160984075Y-86072993D01*
X161049901Y-86187007D01*
X161142993Y-86280099D01*
X161257007Y-86345925D01*
X161320590Y-86362962D01*
X160688282Y-86995269D01*
X160688282Y-86995270D01*
X160742449Y-87034624D01*
X160931782Y-87131095D01*
X161133869Y-87196757D01*
X161133873Y-87196758D01*
X161255366Y-87216000D01*
X161318501Y-87245929D01*
X161355433Y-87305240D01*
X161354435Y-87375103D01*
X161315826Y-87433335D01*
X161260161Y-87460090D01*
X161164588Y-87479101D01*
X161164580Y-87479103D01*
X160986512Y-87552860D01*
X160986499Y-87552867D01*
X160826242Y-87659948D01*
X160826238Y-87659951D01*
X160689951Y-87796238D01*
X160689948Y-87796242D01*
X160582867Y-87956499D01*
X160582860Y-87956512D01*
X160509103Y-88134580D01*
X160509100Y-88134589D01*
X160471500Y-88323621D01*
X160471500Y-88516378D01*
X160504500Y-88682282D01*
X160498273Y-88751874D01*
X160470564Y-88794154D01*
X159509539Y-89755181D01*
X159482611Y-89769884D01*
X159456793Y-89786477D01*
X159450592Y-89787368D01*
X159448216Y-89788666D01*
X159421858Y-89791500D01*
X159239172Y-89791500D01*
X159172133Y-89771815D01*
X159126378Y-89719011D01*
X159115172Y-89667500D01*
X159115172Y-89471390D01*
X159115200Y-89471294D01*
X159115200Y-89349182D01*
X159112396Y-89336895D01*
X159083679Y-89211092D01*
X159022220Y-89083481D01*
X158933904Y-88972746D01*
X158933899Y-88972741D01*
X158823160Y-88884442D01*
X158695544Y-88822997D01*
X158557448Y-88791492D01*
X158486637Y-88791499D01*
X158486630Y-88791500D01*
X158450139Y-88791500D01*
X158450042Y-88791493D01*
X158438021Y-88791494D01*
X158437929Y-88791467D01*
X158386630Y-88791472D01*
X158315817Y-88791479D01*
X158315807Y-88791480D01*
X158177750Y-88823005D01*
X158177743Y-88823007D01*
X158050150Y-88884465D01*
X158050146Y-88884468D01*
X157939428Y-88972774D01*
X157939423Y-88972778D01*
X157851128Y-89083508D01*
X157789683Y-89211112D01*
X157758171Y-89349180D01*
X157758171Y-89349187D01*
X157758172Y-89398501D01*
X157758172Y-89752120D01*
X157738487Y-89819159D01*
X157685683Y-89864914D01*
X157616525Y-89874858D01*
X157580379Y-89863844D01*
X157495544Y-89822997D01*
X157357448Y-89791492D01*
X157286637Y-89791499D01*
X157286630Y-89791500D01*
X156015286Y-89791500D01*
X156000357Y-89787500D01*
X155899643Y-89787500D01*
X155884714Y-89791500D01*
X143225196Y-89791500D01*
X143158157Y-89771815D01*
X143112402Y-89719011D01*
X143110636Y-89714955D01*
X143107138Y-89706512D01*
X143107136Y-89706506D01*
X143105512Y-89704075D01*
X143000051Y-89546241D01*
X142863761Y-89409951D01*
X142863757Y-89409948D01*
X142703500Y-89302867D01*
X142703487Y-89302860D01*
X142525419Y-89229103D01*
X142525410Y-89229100D01*
X142336378Y-89191500D01*
X142336374Y-89191500D01*
X142143626Y-89191500D01*
X142143621Y-89191500D01*
X141954589Y-89229100D01*
X141954580Y-89229103D01*
X141776512Y-89302860D01*
X141776499Y-89302867D01*
X141616242Y-89409948D01*
X141616238Y-89409951D01*
X141479951Y-89546238D01*
X141479948Y-89546242D01*
X141372867Y-89706499D01*
X141372860Y-89706512D01*
X141299103Y-89884580D01*
X141299101Y-89884588D01*
X141280090Y-89980161D01*
X141247705Y-90042072D01*
X141186989Y-90076646D01*
X141117219Y-90072905D01*
X141060547Y-90032039D01*
X141036000Y-89975366D01*
X141016758Y-89853873D01*
X141016757Y-89853869D01*
X140951095Y-89651782D01*
X140854620Y-89462442D01*
X140729727Y-89290540D01*
X140729723Y-89290535D01*
X140579464Y-89140276D01*
X140579459Y-89140272D01*
X140407558Y-89015379D01*
X140397954Y-89010486D01*
X140347157Y-88962512D01*
X140330361Y-88894692D01*
X140352897Y-88828556D01*
X140397954Y-88789514D01*
X140407558Y-88784620D01*
X140579459Y-88659727D01*
X140579464Y-88659723D01*
X140729723Y-88509464D01*
X140729727Y-88509459D01*
X140854620Y-88337557D01*
X140951095Y-88148217D01*
X141016757Y-87946130D01*
X141016758Y-87946126D01*
X141036000Y-87824633D01*
X141065929Y-87761498D01*
X141125240Y-87724566D01*
X141195102Y-87725564D01*
X141253335Y-87764173D01*
X141280090Y-87819838D01*
X141299101Y-87915411D01*
X141299103Y-87915419D01*
X141372860Y-88093487D01*
X141372867Y-88093500D01*
X141479948Y-88253757D01*
X141479951Y-88253761D01*
X141616238Y-88390048D01*
X141616242Y-88390051D01*
X141776499Y-88497132D01*
X141776512Y-88497139D01*
X141910063Y-88552456D01*
X141954582Y-88570897D01*
X141954584Y-88570897D01*
X141954589Y-88570899D01*
X142143621Y-88608499D01*
X142143625Y-88608500D01*
X142143626Y-88608500D01*
X142336375Y-88608500D01*
X142336376Y-88608499D01*
X142399388Y-88595965D01*
X142525410Y-88570899D01*
X142525413Y-88570897D01*
X142525418Y-88570897D01*
X142703494Y-88497136D01*
X142863758Y-88390051D01*
X143000051Y-88253758D01*
X143107136Y-88093494D01*
X143180897Y-87915418D01*
X143180897Y-87915413D01*
X143180899Y-87915410D01*
X143218499Y-87726378D01*
X143218500Y-87726375D01*
X143218500Y-87533625D01*
X143218499Y-87533621D01*
X143180899Y-87344589D01*
X143180896Y-87344580D01*
X143107139Y-87166512D01*
X143107132Y-87166499D01*
X143000051Y-87006242D01*
X143000048Y-87006238D01*
X142863761Y-86869951D01*
X142863757Y-86869948D01*
X142703500Y-86762867D01*
X142703487Y-86762860D01*
X142525419Y-86689103D01*
X142525410Y-86689100D01*
X142336378Y-86651500D01*
X142336374Y-86651500D01*
X142143626Y-86651500D01*
X142143621Y-86651500D01*
X141954589Y-86689100D01*
X141954580Y-86689103D01*
X141776512Y-86762860D01*
X141776499Y-86762867D01*
X141616242Y-86869948D01*
X141616238Y-86869951D01*
X141479951Y-87006238D01*
X141479948Y-87006242D01*
X141372867Y-87166499D01*
X141372860Y-87166512D01*
X141299103Y-87344580D01*
X141299101Y-87344588D01*
X141280090Y-87440161D01*
X141247705Y-87502072D01*
X141186989Y-87536646D01*
X141117219Y-87532905D01*
X141060547Y-87492039D01*
X141036000Y-87435366D01*
X141016758Y-87313873D01*
X141016757Y-87313869D01*
X140951095Y-87111782D01*
X140854620Y-86922442D01*
X140729727Y-86750540D01*
X140729723Y-86750535D01*
X140579464Y-86600276D01*
X140579459Y-86600272D01*
X140407558Y-86475379D01*
X140397954Y-86470486D01*
X140347157Y-86422512D01*
X140330361Y-86354692D01*
X140352897Y-86288556D01*
X140397954Y-86249514D01*
X140407558Y-86244620D01*
X140579459Y-86119727D01*
X140579464Y-86119723D01*
X140729723Y-85969464D01*
X140729727Y-85969459D01*
X140854620Y-85797557D01*
X140951095Y-85608217D01*
X141016757Y-85406130D01*
X141016758Y-85406126D01*
X141036000Y-85284633D01*
X141065929Y-85221498D01*
X141125240Y-85184566D01*
X141195102Y-85185564D01*
X141253335Y-85224173D01*
X141280090Y-85279838D01*
X141299101Y-85375411D01*
X141299103Y-85375419D01*
X141372860Y-85553487D01*
X141372867Y-85553500D01*
X141479948Y-85713757D01*
X141479951Y-85713761D01*
X141616238Y-85850048D01*
X141616242Y-85850051D01*
X141776499Y-85957132D01*
X141776512Y-85957139D01*
X141846784Y-85986246D01*
X141954582Y-86030897D01*
X141954584Y-86030897D01*
X141954589Y-86030899D01*
X142143621Y-86068499D01*
X142143625Y-86068500D01*
X142143626Y-86068500D01*
X142336375Y-86068500D01*
X142336376Y-86068499D01*
X142399388Y-86055965D01*
X142525410Y-86030899D01*
X142525413Y-86030897D01*
X142525418Y-86030897D01*
X142703494Y-85957136D01*
X142863758Y-85850051D01*
X143000051Y-85713758D01*
X143005246Y-85705981D01*
X143009251Y-85699990D01*
X143107132Y-85553500D01*
X143107132Y-85553499D01*
X143107136Y-85553494D01*
X143180897Y-85375418D01*
X143180897Y-85375413D01*
X143180899Y-85375410D01*
X143218499Y-85186378D01*
X143218500Y-85186375D01*
X143218500Y-84993625D01*
X143218499Y-84993621D01*
X143180899Y-84804589D01*
X143180896Y-84804580D01*
X143107139Y-84626512D01*
X143107132Y-84626499D01*
X143000051Y-84466242D01*
X143000048Y-84466238D01*
X142863761Y-84329951D01*
X142863757Y-84329948D01*
X142703500Y-84222867D01*
X142703487Y-84222860D01*
X142525419Y-84149103D01*
X142525410Y-84149100D01*
X142336378Y-84111500D01*
X142336374Y-84111500D01*
X142143626Y-84111500D01*
X142143621Y-84111500D01*
X141954589Y-84149100D01*
X141954580Y-84149103D01*
X141776512Y-84222860D01*
X141776499Y-84222867D01*
X141616242Y-84329948D01*
X141616238Y-84329951D01*
X141479951Y-84466238D01*
X141479948Y-84466242D01*
X141372867Y-84626499D01*
X141372860Y-84626512D01*
X141299103Y-84804580D01*
X141299101Y-84804588D01*
X141280090Y-84900161D01*
X141247705Y-84962072D01*
X141186989Y-84996646D01*
X141117219Y-84992905D01*
X141060547Y-84952039D01*
X141036000Y-84895366D01*
X141016758Y-84773873D01*
X141016757Y-84773869D01*
X140951095Y-84571782D01*
X140854620Y-84382442D01*
X140729727Y-84210540D01*
X140729723Y-84210535D01*
X140579464Y-84060276D01*
X140579459Y-84060272D01*
X140407557Y-83935379D01*
X140218217Y-83838904D01*
X140016129Y-83773242D01*
X139894632Y-83753999D01*
X139831497Y-83724070D01*
X139794566Y-83664758D01*
X139795564Y-83594896D01*
X139834174Y-83536663D01*
X139889839Y-83509909D01*
X139985410Y-83490899D01*
X139985413Y-83490897D01*
X139985418Y-83490897D01*
X140163494Y-83417136D01*
X140323758Y-83310051D01*
X140460051Y-83173758D01*
X140567136Y-83013494D01*
X140640897Y-82835418D01*
X140678500Y-82646374D01*
X140678500Y-82453626D01*
X140660175Y-82361500D01*
X140640899Y-82264589D01*
X140640896Y-82264580D01*
X140567139Y-82086512D01*
X140567132Y-82086499D01*
X140460051Y-81926242D01*
X140460048Y-81926238D01*
X140323761Y-81789951D01*
X140323757Y-81789948D01*
X140315388Y-81784356D01*
X140170196Y-81687341D01*
X141261500Y-81687341D01*
X141261500Y-83412658D01*
X141268954Y-83450135D01*
X141268955Y-83450136D01*
X141268955Y-83450137D01*
X141268956Y-83450138D01*
X141297357Y-83492643D01*
X141339862Y-83521044D01*
X141339863Y-83521044D01*
X141339864Y-83521045D01*
X141377341Y-83528499D01*
X141377345Y-83528500D01*
X141377346Y-83528500D01*
X143102655Y-83528500D01*
X143102656Y-83528499D01*
X143115262Y-83525992D01*
X143140135Y-83521045D01*
X143140135Y-83521044D01*
X143140138Y-83521044D01*
X143182643Y-83492643D01*
X143211044Y-83450138D01*
X143218500Y-83412654D01*
X143218500Y-83052500D01*
X143238185Y-82985461D01*
X143290989Y-82939706D01*
X143342500Y-82928500D01*
X158549828Y-82928500D01*
X158549830Y-82928500D01*
X158646096Y-82902706D01*
X158691475Y-82876506D01*
X158732405Y-82852875D01*
X160259819Y-81325461D01*
X160321142Y-81291976D01*
X160390834Y-81296960D01*
X160446767Y-81338832D01*
X160471184Y-81404296D01*
X160471500Y-81413142D01*
X160471500Y-81662658D01*
X160478954Y-81700135D01*
X160478955Y-81700136D01*
X160478955Y-81700137D01*
X160478956Y-81700138D01*
X160507357Y-81742643D01*
X160549862Y-81771044D01*
X160549863Y-81771044D01*
X160549864Y-81771045D01*
X160587341Y-81778499D01*
X160587345Y-81778500D01*
X160587346Y-81778500D01*
X162312655Y-81778500D01*
X162312656Y-81778499D01*
X162325262Y-81775992D01*
X162350135Y-81771045D01*
X162350135Y-81771044D01*
X162350138Y-81771044D01*
X162392643Y-81742643D01*
X162421044Y-81700138D01*
X162421044Y-81700134D01*
X162425719Y-81688852D01*
X162429377Y-81690367D01*
X162451445Y-81648170D01*
X162512158Y-81613591D01*
X162581928Y-81617325D01*
X162628366Y-81646584D01*
X165385181Y-84403399D01*
X165418666Y-84464722D01*
X165421500Y-84491080D01*
X165421500Y-98286201D01*
X165401815Y-98353240D01*
X165385181Y-98373882D01*
X163623882Y-100135181D01*
X163562559Y-100168666D01*
X163536201Y-100171500D01*
X161937341Y-100171500D01*
X161899864Y-100178954D01*
X161899863Y-100178955D01*
X161857357Y-100207357D01*
X161828955Y-100249863D01*
X161828954Y-100249864D01*
X161821500Y-100287341D01*
X161821500Y-102012658D01*
X161828954Y-102050135D01*
X161828955Y-102050136D01*
X161828955Y-102050137D01*
X161828956Y-102050138D01*
X161857357Y-102092643D01*
X161899862Y-102121044D01*
X161899863Y-102121044D01*
X161899864Y-102121045D01*
X161937341Y-102128499D01*
X161937345Y-102128500D01*
X161937346Y-102128500D01*
X163662655Y-102128500D01*
X163662656Y-102128499D01*
X163675262Y-102125992D01*
X163700135Y-102121045D01*
X163700135Y-102121044D01*
X163700138Y-102121044D01*
X163742643Y-102092643D01*
X163771044Y-102050138D01*
X163778500Y-102012654D01*
X163778500Y-101113799D01*
X163798185Y-101046760D01*
X163814819Y-101026118D01*
X164925756Y-99915181D01*
X166106076Y-98734861D01*
X166156434Y-98647640D01*
X166182501Y-98550357D01*
X166182501Y-98449643D01*
X166182500Y-98449641D01*
X166181440Y-98441587D01*
X166181552Y-98441572D01*
X166178500Y-98418386D01*
X166178500Y-84233109D01*
X166171541Y-84207136D01*
X166152707Y-84136844D01*
X166125702Y-84090071D01*
X166102877Y-84050537D01*
X166102872Y-84050531D01*
X162549468Y-80497127D01*
X162549467Y-80497126D01*
X162549466Y-80497125D01*
X162506311Y-80472209D01*
X162490496Y-80463078D01*
X162442283Y-80412510D01*
X162428500Y-80355693D01*
X162428500Y-79937345D01*
X162428499Y-79937341D01*
X162421045Y-79899864D01*
X162421044Y-79899863D01*
X162421044Y-79899862D01*
X162392643Y-79857357D01*
X162350138Y-79828956D01*
X162350137Y-79828955D01*
X162350136Y-79828955D01*
X162350135Y-79828954D01*
X162312658Y-79821500D01*
X162312654Y-79821500D01*
X160587346Y-79821500D01*
X160587341Y-79821500D01*
X160549864Y-79828954D01*
X160549863Y-79828955D01*
X160507357Y-79857357D01*
X160478955Y-79899863D01*
X160478954Y-79899864D01*
X160471500Y-79937341D01*
X160471500Y-80297500D01*
X160451815Y-80364539D01*
X160399011Y-80410294D01*
X160347500Y-80421500D01*
X160200170Y-80421500D01*
X160103904Y-80447294D01*
X160103901Y-80447295D01*
X160060750Y-80472208D01*
X160060750Y-80472209D01*
X160017595Y-80497125D01*
X160017592Y-80497127D01*
X158379539Y-82135181D01*
X158318216Y-82168666D01*
X158291858Y-82171500D01*
X143342500Y-82171500D01*
X143275461Y-82151815D01*
X143229706Y-82099011D01*
X143218500Y-82047500D01*
X143218500Y-81687345D01*
X143218499Y-81687341D01*
X143211045Y-81649864D01*
X143211044Y-81649863D01*
X143211044Y-81649862D01*
X143182643Y-81607357D01*
X143140138Y-81578956D01*
X143140137Y-81578955D01*
X143140136Y-81578955D01*
X143140135Y-81578954D01*
X143102658Y-81571500D01*
X143102654Y-81571500D01*
X141377346Y-81571500D01*
X141377341Y-81571500D01*
X141339864Y-81578954D01*
X141339863Y-81578955D01*
X141297357Y-81607357D01*
X141268955Y-81649863D01*
X141268954Y-81649864D01*
X141261500Y-81687341D01*
X140170196Y-81687341D01*
X140163500Y-81682867D01*
X140163487Y-81682860D01*
X139985419Y-81609103D01*
X139985410Y-81609100D01*
X139796378Y-81571500D01*
X139796374Y-81571500D01*
X139603626Y-81571500D01*
X139603621Y-81571500D01*
X139414589Y-81609100D01*
X139414580Y-81609103D01*
X139236512Y-81682860D01*
X139236499Y-81682867D01*
X139076242Y-81789948D01*
X139076238Y-81789951D01*
X138939951Y-81926238D01*
X138939948Y-81926242D01*
X138832867Y-82086499D01*
X138832860Y-82086512D01*
X138759103Y-82264580D01*
X138759100Y-82264589D01*
X138721500Y-82453621D01*
X138721500Y-82646378D01*
X138759100Y-82835410D01*
X138759103Y-82835419D01*
X138832860Y-83013487D01*
X138832867Y-83013500D01*
X138939948Y-83173757D01*
X138939951Y-83173761D01*
X139076238Y-83310048D01*
X139076242Y-83310051D01*
X139236499Y-83417132D01*
X139236512Y-83417139D01*
X139316180Y-83450138D01*
X139414582Y-83490897D01*
X139414584Y-83490897D01*
X139414589Y-83490899D01*
X139510160Y-83509909D01*
X139572071Y-83542294D01*
X139606645Y-83603009D01*
X139602906Y-83672779D01*
X139562040Y-83729451D01*
X139505367Y-83753999D01*
X139383872Y-83773242D01*
X139383869Y-83773242D01*
X139181782Y-83838904D01*
X138992442Y-83935379D01*
X138820540Y-84060272D01*
X138820535Y-84060276D01*
X138670276Y-84210535D01*
X138670272Y-84210540D01*
X138545379Y-84382442D01*
X138448904Y-84571782D01*
X138383242Y-84773870D01*
X138383242Y-84773873D01*
X138372769Y-84840000D01*
X137650000Y-84840000D01*
X137650000Y-78323788D01*
X137669685Y-78256749D01*
X137722489Y-78210994D01*
X137773786Y-78199788D01*
X166775789Y-78150212D01*
X166842861Y-78169782D01*
G37*
G04 #@! TD.AperFunction*
D19*
X137500000Y-78000000D02*
X167000000Y-78000000D01*
X167000000Y-110000000D01*
X137500000Y-110000000D01*
X137500000Y-78000000D01*
M02*
