G04 #@! TF.GenerationSoftware,KiCad,Pcbnew,9.0.2*
G04 #@! TF.CreationDate,2025-09-05T09:59:15+02:00*
G04 #@! TF.ProjectId,JtagArm20Adapter,4a746167-4172-46d3-9230-416461707465,rev?*
G04 #@! TF.SameCoordinates,Original*
G04 #@! TF.FileFunction,Soldermask,Top*
G04 #@! TF.FilePolarity,Negative*
%FSLAX46Y46*%
G04 Gerber Fmt 4.6, Leading zero omitted, Abs format (unit mm)*
G04 Created by KiCad (PCBNEW 9.0.2) date 2025-09-05 09:59:15*
%MOMM*%
%LPD*%
G01*
G04 APERTURE LIST*
G04 #@! TA.AperFunction,Profile*
%ADD10C,0.050000*%
G04 #@! TD*
G04 APERTURE END LIST*
G36*
X150329517Y-107102882D02*
G01*
X150346062Y-107113938D01*
X150357118Y-107130483D01*
X150361000Y-107150000D01*
X150361000Y-108850000D01*
X150357118Y-108869517D01*
X150346062Y-108886062D01*
X150329517Y-108897118D01*
X150310000Y-108901000D01*
X148610000Y-108901000D01*
X148590483Y-108897118D01*
X148573938Y-108886062D01*
X148562882Y-108869517D01*
X148559000Y-108850000D01*
X148559000Y-107150000D01*
X148562882Y-107130483D01*
X148573938Y-107113938D01*
X148590483Y-107102882D01*
X148610000Y-107099000D01*
X150310000Y-107099000D01*
X150329517Y-107102882D01*
G37*
G36*
X152261546Y-107137797D02*
G01*
X152424728Y-107205389D01*
X152571588Y-107303518D01*
X152696482Y-107428412D01*
X152794611Y-107575272D01*
X152862203Y-107738454D01*
X152896661Y-107911687D01*
X152896661Y-108088313D01*
X152862203Y-108261546D01*
X152794611Y-108424728D01*
X152696482Y-108571588D01*
X152571588Y-108696482D01*
X152424728Y-108794611D01*
X152261546Y-108862203D01*
X152088313Y-108896661D01*
X151911687Y-108896661D01*
X151738454Y-108862203D01*
X151575272Y-108794611D01*
X151428412Y-108696482D01*
X151303518Y-108571588D01*
X151205389Y-108424728D01*
X151137797Y-108261546D01*
X151103339Y-108088313D01*
X151103339Y-107911687D01*
X151137797Y-107738454D01*
X151205389Y-107575272D01*
X151303518Y-107428412D01*
X151428412Y-107303518D01*
X151575272Y-107205389D01*
X151738454Y-107137797D01*
X151911687Y-107103339D01*
X152088313Y-107103339D01*
X152261546Y-107137797D01*
G37*
G36*
X154801546Y-107137797D02*
G01*
X154964728Y-107205389D01*
X155111588Y-107303518D01*
X155236482Y-107428412D01*
X155334611Y-107575272D01*
X155402203Y-107738454D01*
X155436661Y-107911687D01*
X155436661Y-108088313D01*
X155402203Y-108261546D01*
X155334611Y-108424728D01*
X155236482Y-108571588D01*
X155111588Y-108696482D01*
X154964728Y-108794611D01*
X154801546Y-108862203D01*
X154628313Y-108896661D01*
X154451687Y-108896661D01*
X154278454Y-108862203D01*
X154115272Y-108794611D01*
X153968412Y-108696482D01*
X153843518Y-108571588D01*
X153745389Y-108424728D01*
X153677797Y-108261546D01*
X153643339Y-108088313D01*
X153643339Y-107911687D01*
X153677797Y-107738454D01*
X153745389Y-107575272D01*
X153843518Y-107428412D01*
X153968412Y-107303518D01*
X154115272Y-107205389D01*
X154278454Y-107137797D01*
X154451687Y-107103339D01*
X154628313Y-107103339D01*
X154801546Y-107137797D01*
G37*
G36*
X160418914Y-105581995D02*
G01*
X160434726Y-105588976D01*
X160442531Y-105590213D01*
X160475039Y-105606776D01*
X160520106Y-105626676D01*
X160598324Y-105704894D01*
X160618226Y-105749967D01*
X160634786Y-105782468D01*
X160636021Y-105790270D01*
X160643005Y-105806086D01*
X160651000Y-105875000D01*
X160651000Y-107125000D01*
X160643005Y-107193914D01*
X160636021Y-107209729D01*
X160634786Y-107217531D01*
X160618229Y-107250024D01*
X160598324Y-107295106D01*
X160520106Y-107373324D01*
X160475024Y-107393229D01*
X160442531Y-107409786D01*
X160434729Y-107411021D01*
X160418914Y-107418005D01*
X160350000Y-107426000D01*
X159650000Y-107426000D01*
X159581086Y-107418005D01*
X159565270Y-107411021D01*
X159557468Y-107409786D01*
X159524967Y-107393226D01*
X159479894Y-107373324D01*
X159401676Y-107295106D01*
X159381776Y-107250039D01*
X159365213Y-107217531D01*
X159363976Y-107209726D01*
X159356995Y-107193914D01*
X159349000Y-107125000D01*
X159349000Y-105875000D01*
X159356995Y-105806086D01*
X159363976Y-105790274D01*
X159365213Y-105782468D01*
X159381780Y-105749953D01*
X159401676Y-105704894D01*
X159479894Y-105626676D01*
X159524953Y-105606780D01*
X159557468Y-105590213D01*
X159565274Y-105588976D01*
X159581086Y-105581995D01*
X159650000Y-105574000D01*
X160350000Y-105574000D01*
X160418914Y-105581995D01*
G37*
G36*
X162188975Y-105602032D02*
G01*
X162306879Y-105650869D01*
X162412990Y-105721770D01*
X162503230Y-105812010D01*
X162574131Y-105918121D01*
X162622968Y-106036025D01*
X162647865Y-106161191D01*
X162651000Y-106225000D01*
X162651000Y-106775000D01*
X162647865Y-106838809D01*
X162622968Y-106963975D01*
X162574131Y-107081879D01*
X162503230Y-107187990D01*
X162412990Y-107278230D01*
X162306879Y-107349131D01*
X162188975Y-107397968D01*
X162063809Y-107422865D01*
X161936191Y-107422865D01*
X161811025Y-107397968D01*
X161693121Y-107349131D01*
X161587010Y-107278230D01*
X161496770Y-107187990D01*
X161425869Y-107081879D01*
X161377032Y-106963975D01*
X161352135Y-106838809D01*
X161349000Y-106775000D01*
X161349000Y-106225000D01*
X161352135Y-106161191D01*
X161377032Y-106036025D01*
X161425869Y-105918121D01*
X161496770Y-105812010D01*
X161587010Y-105721770D01*
X161693121Y-105650869D01*
X161811025Y-105602032D01*
X161936191Y-105577135D01*
X162063809Y-105577135D01*
X162188975Y-105602032D01*
G37*
G36*
X164188975Y-105602032D02*
G01*
X164306879Y-105650869D01*
X164412990Y-105721770D01*
X164503230Y-105812010D01*
X164574131Y-105918121D01*
X164622968Y-106036025D01*
X164647865Y-106161191D01*
X164651000Y-106225000D01*
X164651000Y-106775000D01*
X164647865Y-106838809D01*
X164622968Y-106963975D01*
X164574131Y-107081879D01*
X164503230Y-107187990D01*
X164412990Y-107278230D01*
X164306879Y-107349131D01*
X164188975Y-107397968D01*
X164063809Y-107422865D01*
X163936191Y-107422865D01*
X163811025Y-107397968D01*
X163693121Y-107349131D01*
X163587010Y-107278230D01*
X163496770Y-107187990D01*
X163425869Y-107081879D01*
X163377032Y-106963975D01*
X163352135Y-106838809D01*
X163349000Y-106775000D01*
X163349000Y-106225000D01*
X163352135Y-106161191D01*
X163377032Y-106036025D01*
X163425869Y-105918121D01*
X163496770Y-105812010D01*
X163587010Y-105721770D01*
X163693121Y-105650869D01*
X163811025Y-105602032D01*
X163936191Y-105577135D01*
X164063809Y-105577135D01*
X164188975Y-105602032D01*
G37*
G36*
X139961546Y-104547797D02*
G01*
X140124728Y-104615389D01*
X140271588Y-104713518D01*
X140396482Y-104838412D01*
X140494611Y-104985272D01*
X140562203Y-105148454D01*
X140596661Y-105321687D01*
X140596661Y-105498313D01*
X140562203Y-105671546D01*
X140494611Y-105834728D01*
X140396482Y-105981588D01*
X140271588Y-106106482D01*
X140124728Y-106204611D01*
X139961546Y-106272203D01*
X139788313Y-106306661D01*
X139611687Y-106306661D01*
X139438454Y-106272203D01*
X139275272Y-106204611D01*
X139128412Y-106106482D01*
X139003518Y-105981588D01*
X138905389Y-105834728D01*
X138837797Y-105671546D01*
X138803339Y-105498313D01*
X138803339Y-105321687D01*
X138837797Y-105148454D01*
X138905389Y-104985272D01*
X139003518Y-104838412D01*
X139128412Y-104713518D01*
X139275272Y-104615389D01*
X139438454Y-104547797D01*
X139611687Y-104513339D01*
X139788313Y-104513339D01*
X139961546Y-104547797D01*
G37*
G36*
X142501546Y-104547797D02*
G01*
X142664728Y-104615389D01*
X142811588Y-104713518D01*
X142936482Y-104838412D01*
X143034611Y-104985272D01*
X143102203Y-105148454D01*
X143136661Y-105321687D01*
X143136661Y-105498313D01*
X143102203Y-105671546D01*
X143034611Y-105834728D01*
X142936482Y-105981588D01*
X142811588Y-106106482D01*
X142664728Y-106204611D01*
X142501546Y-106272203D01*
X142328313Y-106306661D01*
X142151687Y-106306661D01*
X141978454Y-106272203D01*
X141815272Y-106204611D01*
X141668412Y-106106482D01*
X141543518Y-105981588D01*
X141445389Y-105834728D01*
X141377797Y-105671546D01*
X141343339Y-105498313D01*
X141343339Y-105321687D01*
X141377797Y-105148454D01*
X141445389Y-104985272D01*
X141543518Y-104838412D01*
X141668412Y-104713518D01*
X141815272Y-104615389D01*
X141978454Y-104547797D01*
X142151687Y-104513339D01*
X142328313Y-104513339D01*
X142501546Y-104547797D01*
G37*
G36*
X139961546Y-102007797D02*
G01*
X140124728Y-102075389D01*
X140271588Y-102173518D01*
X140396482Y-102298412D01*
X140494611Y-102445272D01*
X140562203Y-102608454D01*
X140596661Y-102781687D01*
X140596661Y-102958313D01*
X140562203Y-103131546D01*
X140494611Y-103294728D01*
X140396482Y-103441588D01*
X140271588Y-103566482D01*
X140124728Y-103664611D01*
X139961546Y-103732203D01*
X139788313Y-103766661D01*
X139611687Y-103766661D01*
X139438454Y-103732203D01*
X139275272Y-103664611D01*
X139128412Y-103566482D01*
X139003518Y-103441588D01*
X138905389Y-103294728D01*
X138837797Y-103131546D01*
X138803339Y-102958313D01*
X138803339Y-102781687D01*
X138837797Y-102608454D01*
X138905389Y-102445272D01*
X139003518Y-102298412D01*
X139128412Y-102173518D01*
X139275272Y-102075389D01*
X139438454Y-102007797D01*
X139611687Y-101973339D01*
X139788313Y-101973339D01*
X139961546Y-102007797D01*
G37*
G36*
X142501546Y-102007797D02*
G01*
X142664728Y-102075389D01*
X142811588Y-102173518D01*
X142936482Y-102298412D01*
X143034611Y-102445272D01*
X143102203Y-102608454D01*
X143136661Y-102781687D01*
X143136661Y-102958313D01*
X143102203Y-103131546D01*
X143034611Y-103294728D01*
X142936482Y-103441588D01*
X142811588Y-103566482D01*
X142664728Y-103664611D01*
X142501546Y-103732203D01*
X142328313Y-103766661D01*
X142151687Y-103766661D01*
X141978454Y-103732203D01*
X141815272Y-103664611D01*
X141668412Y-103566482D01*
X141543518Y-103441588D01*
X141445389Y-103294728D01*
X141377797Y-103131546D01*
X141343339Y-102958313D01*
X141343339Y-102781687D01*
X141377797Y-102608454D01*
X141445389Y-102445272D01*
X141543518Y-102298412D01*
X141668412Y-102173518D01*
X141815272Y-102075389D01*
X141978454Y-102007797D01*
X142151687Y-101973339D01*
X142328313Y-101973339D01*
X142501546Y-102007797D01*
G37*
G36*
X163669517Y-100252882D02*
G01*
X163686062Y-100263938D01*
X163697118Y-100280483D01*
X163701000Y-100300000D01*
X163701000Y-102000000D01*
X163697118Y-102019517D01*
X163686062Y-102036062D01*
X163669517Y-102047118D01*
X163650000Y-102051000D01*
X161950000Y-102051000D01*
X161930483Y-102047118D01*
X161913938Y-102036062D01*
X161902882Y-102019517D01*
X161899000Y-102000000D01*
X161899000Y-100300000D01*
X161902882Y-100280483D01*
X161913938Y-100263938D01*
X161930483Y-100252882D01*
X161950000Y-100249000D01*
X163650000Y-100249000D01*
X163669517Y-100252882D01*
G37*
G36*
X160521546Y-100287797D02*
G01*
X160684728Y-100355389D01*
X160831588Y-100453518D01*
X160956482Y-100578412D01*
X161054611Y-100725272D01*
X161122203Y-100888454D01*
X161156661Y-101061687D01*
X161156661Y-101238313D01*
X161122203Y-101411546D01*
X161054611Y-101574728D01*
X160956482Y-101721588D01*
X160831588Y-101846482D01*
X160684728Y-101944611D01*
X160521546Y-102012203D01*
X160348313Y-102046661D01*
X160171687Y-102046661D01*
X159998454Y-102012203D01*
X159835272Y-101944611D01*
X159688412Y-101846482D01*
X159563518Y-101721588D01*
X159465389Y-101574728D01*
X159397797Y-101411546D01*
X159363339Y-101238313D01*
X159363339Y-101061687D01*
X159397797Y-100888454D01*
X159465389Y-100725272D01*
X159563518Y-100578412D01*
X159688412Y-100453518D01*
X159835272Y-100355389D01*
X159998454Y-100287797D01*
X160171687Y-100253339D01*
X160348313Y-100253339D01*
X160521546Y-100287797D01*
G37*
G36*
X139961546Y-99467797D02*
G01*
X140124728Y-99535389D01*
X140271588Y-99633518D01*
X140396482Y-99758412D01*
X140494611Y-99905272D01*
X140562203Y-100068454D01*
X140596661Y-100241687D01*
X140596661Y-100418313D01*
X140562203Y-100591546D01*
X140494611Y-100754728D01*
X140396482Y-100901588D01*
X140271588Y-101026482D01*
X140124728Y-101124611D01*
X139961546Y-101192203D01*
X139788313Y-101226661D01*
X139611687Y-101226661D01*
X139438454Y-101192203D01*
X139275272Y-101124611D01*
X139128412Y-101026482D01*
X139003518Y-100901588D01*
X138905389Y-100754728D01*
X138837797Y-100591546D01*
X138803339Y-100418313D01*
X138803339Y-100241687D01*
X138837797Y-100068454D01*
X138905389Y-99905272D01*
X139003518Y-99758412D01*
X139128412Y-99633518D01*
X139275272Y-99535389D01*
X139438454Y-99467797D01*
X139611687Y-99433339D01*
X139788313Y-99433339D01*
X139961546Y-99467797D01*
G37*
G36*
X142501546Y-99467797D02*
G01*
X142664728Y-99535389D01*
X142811588Y-99633518D01*
X142936482Y-99758412D01*
X143034611Y-99905272D01*
X143102203Y-100068454D01*
X143136661Y-100241687D01*
X143136661Y-100418313D01*
X143102203Y-100591546D01*
X143034611Y-100754728D01*
X142936482Y-100901588D01*
X142811588Y-101026482D01*
X142664728Y-101124611D01*
X142501546Y-101192203D01*
X142328313Y-101226661D01*
X142151687Y-101226661D01*
X141978454Y-101192203D01*
X141815272Y-101124611D01*
X141668412Y-101026482D01*
X141543518Y-100901588D01*
X141445389Y-100754728D01*
X141377797Y-100591546D01*
X141343339Y-100418313D01*
X141343339Y-100241687D01*
X141377797Y-100068454D01*
X141445389Y-99905272D01*
X141543518Y-99758412D01*
X141668412Y-99633518D01*
X141815272Y-99535389D01*
X141978454Y-99467797D01*
X142151687Y-99433339D01*
X142328313Y-99433339D01*
X142501546Y-99467797D01*
G37*
G36*
X160521546Y-97747797D02*
G01*
X160684728Y-97815389D01*
X160831588Y-97913518D01*
X160956482Y-98038412D01*
X161054611Y-98185272D01*
X161122203Y-98348454D01*
X161156661Y-98521687D01*
X161156661Y-98698313D01*
X161122203Y-98871546D01*
X161054611Y-99034728D01*
X160956482Y-99181588D01*
X160831588Y-99306482D01*
X160684728Y-99404611D01*
X160521546Y-99472203D01*
X160348313Y-99506661D01*
X160171687Y-99506661D01*
X159998454Y-99472203D01*
X159835272Y-99404611D01*
X159688412Y-99306482D01*
X159563518Y-99181588D01*
X159465389Y-99034728D01*
X159397797Y-98871546D01*
X159363339Y-98698313D01*
X159363339Y-98521687D01*
X159397797Y-98348454D01*
X159465389Y-98185272D01*
X159563518Y-98038412D01*
X159688412Y-97913518D01*
X159835272Y-97815389D01*
X159998454Y-97747797D01*
X160171687Y-97713339D01*
X160348313Y-97713339D01*
X160521546Y-97747797D01*
G37*
G36*
X163061546Y-97747797D02*
G01*
X163224728Y-97815389D01*
X163371588Y-97913518D01*
X163496482Y-98038412D01*
X163594611Y-98185272D01*
X163662203Y-98348454D01*
X163696661Y-98521687D01*
X163696661Y-98698313D01*
X163662203Y-98871546D01*
X163594611Y-99034728D01*
X163496482Y-99181588D01*
X163371588Y-99306482D01*
X163224728Y-99404611D01*
X163061546Y-99472203D01*
X162888313Y-99506661D01*
X162711687Y-99506661D01*
X162538454Y-99472203D01*
X162375272Y-99404611D01*
X162228412Y-99306482D01*
X162103518Y-99181588D01*
X162005389Y-99034728D01*
X161937797Y-98871546D01*
X161903339Y-98698313D01*
X161903339Y-98521687D01*
X161937797Y-98348454D01*
X162005389Y-98185272D01*
X162103518Y-98038412D01*
X162228412Y-97913518D01*
X162375272Y-97815389D01*
X162538454Y-97747797D01*
X162711687Y-97713339D01*
X162888313Y-97713339D01*
X163061546Y-97747797D01*
G37*
G36*
X139961546Y-96927797D02*
G01*
X140124728Y-96995389D01*
X140271588Y-97093518D01*
X140396482Y-97218412D01*
X140494611Y-97365272D01*
X140562203Y-97528454D01*
X140596661Y-97701687D01*
X140596661Y-97878313D01*
X140562203Y-98051546D01*
X140494611Y-98214728D01*
X140396482Y-98361588D01*
X140271588Y-98486482D01*
X140124728Y-98584611D01*
X139961546Y-98652203D01*
X139788313Y-98686661D01*
X139611687Y-98686661D01*
X139438454Y-98652203D01*
X139275272Y-98584611D01*
X139128412Y-98486482D01*
X139003518Y-98361588D01*
X138905389Y-98214728D01*
X138837797Y-98051546D01*
X138803339Y-97878313D01*
X138803339Y-97701687D01*
X138837797Y-97528454D01*
X138905389Y-97365272D01*
X139003518Y-97218412D01*
X139128412Y-97093518D01*
X139275272Y-96995389D01*
X139438454Y-96927797D01*
X139611687Y-96893339D01*
X139788313Y-96893339D01*
X139961546Y-96927797D01*
G37*
G36*
X142501546Y-96927797D02*
G01*
X142664728Y-96995389D01*
X142811588Y-97093518D01*
X142936482Y-97218412D01*
X143034611Y-97365272D01*
X143102203Y-97528454D01*
X143136661Y-97701687D01*
X143136661Y-97878313D01*
X143102203Y-98051546D01*
X143034611Y-98214728D01*
X142936482Y-98361588D01*
X142811588Y-98486482D01*
X142664728Y-98584611D01*
X142501546Y-98652203D01*
X142328313Y-98686661D01*
X142151687Y-98686661D01*
X141978454Y-98652203D01*
X141815272Y-98584611D01*
X141668412Y-98486482D01*
X141543518Y-98361588D01*
X141445389Y-98214728D01*
X141377797Y-98051546D01*
X141343339Y-97878313D01*
X141343339Y-97701687D01*
X141377797Y-97528454D01*
X141445389Y-97365272D01*
X141543518Y-97218412D01*
X141668412Y-97093518D01*
X141815272Y-96995389D01*
X141978454Y-96927797D01*
X142151687Y-96893339D01*
X142328313Y-96893339D01*
X142501546Y-96927797D01*
G37*
G36*
X160521546Y-95207797D02*
G01*
X160684728Y-95275389D01*
X160831588Y-95373518D01*
X160956482Y-95498412D01*
X161054611Y-95645272D01*
X161122203Y-95808454D01*
X161156661Y-95981687D01*
X161156661Y-96158313D01*
X161122203Y-96331546D01*
X161054611Y-96494728D01*
X160956482Y-96641588D01*
X160831588Y-96766482D01*
X160684728Y-96864611D01*
X160521546Y-96932203D01*
X160348313Y-96966661D01*
X160171687Y-96966661D01*
X159998454Y-96932203D01*
X159835272Y-96864611D01*
X159688412Y-96766482D01*
X159563518Y-96641588D01*
X159465389Y-96494728D01*
X159397797Y-96331546D01*
X159363339Y-96158313D01*
X159363339Y-95981687D01*
X159397797Y-95808454D01*
X159465389Y-95645272D01*
X159563518Y-95498412D01*
X159688412Y-95373518D01*
X159835272Y-95275389D01*
X159998454Y-95207797D01*
X160171687Y-95173339D01*
X160348313Y-95173339D01*
X160521546Y-95207797D01*
G37*
G36*
X163061546Y-95207797D02*
G01*
X163224728Y-95275389D01*
X163371588Y-95373518D01*
X163496482Y-95498412D01*
X163594611Y-95645272D01*
X163662203Y-95808454D01*
X163696661Y-95981687D01*
X163696661Y-96158313D01*
X163662203Y-96331546D01*
X163594611Y-96494728D01*
X163496482Y-96641588D01*
X163371588Y-96766482D01*
X163224728Y-96864611D01*
X163061546Y-96932203D01*
X162888313Y-96966661D01*
X162711687Y-96966661D01*
X162538454Y-96932203D01*
X162375272Y-96864611D01*
X162228412Y-96766482D01*
X162103518Y-96641588D01*
X162005389Y-96494728D01*
X161937797Y-96331546D01*
X161903339Y-96158313D01*
X161903339Y-95981687D01*
X161937797Y-95808454D01*
X162005389Y-95645272D01*
X162103518Y-95498412D01*
X162228412Y-95373518D01*
X162375272Y-95275389D01*
X162538454Y-95207797D01*
X162711687Y-95173339D01*
X162888313Y-95173339D01*
X163061546Y-95207797D01*
G37*
G36*
X139961546Y-94387797D02*
G01*
X140124728Y-94455389D01*
X140271588Y-94553518D01*
X140396482Y-94678412D01*
X140494611Y-94825272D01*
X140562203Y-94988454D01*
X140596661Y-95161687D01*
X140596661Y-95338313D01*
X140562203Y-95511546D01*
X140494611Y-95674728D01*
X140396482Y-95821588D01*
X140271588Y-95946482D01*
X140124728Y-96044611D01*
X139961546Y-96112203D01*
X139788313Y-96146661D01*
X139611687Y-96146661D01*
X139438454Y-96112203D01*
X139275272Y-96044611D01*
X139128412Y-95946482D01*
X139003518Y-95821588D01*
X138905389Y-95674728D01*
X138837797Y-95511546D01*
X138803339Y-95338313D01*
X138803339Y-95161687D01*
X138837797Y-94988454D01*
X138905389Y-94825272D01*
X139003518Y-94678412D01*
X139128412Y-94553518D01*
X139275272Y-94455389D01*
X139438454Y-94387797D01*
X139611687Y-94353339D01*
X139788313Y-94353339D01*
X139961546Y-94387797D01*
G37*
G36*
X142501546Y-94387797D02*
G01*
X142664728Y-94455389D01*
X142811588Y-94553518D01*
X142936482Y-94678412D01*
X143034611Y-94825272D01*
X143102203Y-94988454D01*
X143136661Y-95161687D01*
X143136661Y-95338313D01*
X143102203Y-95511546D01*
X143034611Y-95674728D01*
X142936482Y-95821588D01*
X142811588Y-95946482D01*
X142664728Y-96044611D01*
X142501546Y-96112203D01*
X142328313Y-96146661D01*
X142151687Y-96146661D01*
X141978454Y-96112203D01*
X141815272Y-96044611D01*
X141668412Y-95946482D01*
X141543518Y-95821588D01*
X141445389Y-95674728D01*
X141377797Y-95511546D01*
X141343339Y-95338313D01*
X141343339Y-95161687D01*
X141377797Y-94988454D01*
X141445389Y-94825272D01*
X141543518Y-94678412D01*
X141668412Y-94553518D01*
X141815272Y-94455389D01*
X141978454Y-94387797D01*
X142151687Y-94353339D01*
X142328313Y-94353339D01*
X142501546Y-94387797D01*
G37*
G36*
X139961546Y-91847797D02*
G01*
X140124728Y-91915389D01*
X140271588Y-92013518D01*
X140396482Y-92138412D01*
X140494611Y-92285272D01*
X140562203Y-92448454D01*
X140596661Y-92621687D01*
X140596661Y-92798313D01*
X140562203Y-92971546D01*
X140494611Y-93134728D01*
X140396482Y-93281588D01*
X140271588Y-93406482D01*
X140124728Y-93504611D01*
X139961546Y-93572203D01*
X139788313Y-93606661D01*
X139611687Y-93606661D01*
X139438454Y-93572203D01*
X139275272Y-93504611D01*
X139128412Y-93406482D01*
X139003518Y-93281588D01*
X138905389Y-93134728D01*
X138837797Y-92971546D01*
X138803339Y-92798313D01*
X138803339Y-92621687D01*
X138837797Y-92448454D01*
X138905389Y-92285272D01*
X139003518Y-92138412D01*
X139128412Y-92013518D01*
X139275272Y-91915389D01*
X139438454Y-91847797D01*
X139611687Y-91813339D01*
X139788313Y-91813339D01*
X139961546Y-91847797D01*
G37*
G36*
X142501546Y-91847797D02*
G01*
X142664728Y-91915389D01*
X142811588Y-92013518D01*
X142936482Y-92138412D01*
X143034611Y-92285272D01*
X143102203Y-92448454D01*
X143136661Y-92621687D01*
X143136661Y-92798313D01*
X143102203Y-92971546D01*
X143034611Y-93134728D01*
X142936482Y-93281588D01*
X142811588Y-93406482D01*
X142664728Y-93504611D01*
X142501546Y-93572203D01*
X142328313Y-93606661D01*
X142151687Y-93606661D01*
X141978454Y-93572203D01*
X141815272Y-93504611D01*
X141668412Y-93406482D01*
X141543518Y-93281588D01*
X141445389Y-93134728D01*
X141377797Y-92971546D01*
X141343339Y-92798313D01*
X141343339Y-92621687D01*
X141377797Y-92448454D01*
X141445389Y-92285272D01*
X141543518Y-92138412D01*
X141668412Y-92013518D01*
X141815272Y-91915389D01*
X141978454Y-91847797D01*
X142151687Y-91813339D01*
X142328313Y-91813339D01*
X142501546Y-91847797D01*
G37*
G36*
X161711546Y-90097797D02*
G01*
X161874728Y-90165389D01*
X162021588Y-90263518D01*
X162146482Y-90388412D01*
X162244611Y-90535272D01*
X162312203Y-90698454D01*
X162346661Y-90871687D01*
X162346661Y-91048313D01*
X162312203Y-91221546D01*
X162244611Y-91384728D01*
X162146482Y-91531588D01*
X162021588Y-91656482D01*
X161874728Y-91754611D01*
X161711546Y-91822203D01*
X161538313Y-91856661D01*
X161361687Y-91856661D01*
X161188454Y-91822203D01*
X161025272Y-91754611D01*
X160878412Y-91656482D01*
X160753518Y-91531588D01*
X160655389Y-91384728D01*
X160587797Y-91221546D01*
X160553339Y-91048313D01*
X160553339Y-90871687D01*
X160587797Y-90698454D01*
X160655389Y-90535272D01*
X160753518Y-90388412D01*
X160878412Y-90263518D01*
X161025272Y-90165389D01*
X161188454Y-90097797D01*
X161361687Y-90063339D01*
X161538313Y-90063339D01*
X161711546Y-90097797D01*
G37*
G36*
X139961546Y-89307797D02*
G01*
X140124728Y-89375389D01*
X140271588Y-89473518D01*
X140396482Y-89598412D01*
X140494611Y-89745272D01*
X140562203Y-89908454D01*
X140596661Y-90081687D01*
X140596661Y-90258313D01*
X140562203Y-90431546D01*
X140494611Y-90594728D01*
X140396482Y-90741588D01*
X140271588Y-90866482D01*
X140124728Y-90964611D01*
X139961546Y-91032203D01*
X139788313Y-91066661D01*
X139611687Y-91066661D01*
X139438454Y-91032203D01*
X139275272Y-90964611D01*
X139128412Y-90866482D01*
X139003518Y-90741588D01*
X138905389Y-90594728D01*
X138837797Y-90431546D01*
X138803339Y-90258313D01*
X138803339Y-90081687D01*
X138837797Y-89908454D01*
X138905389Y-89745272D01*
X139003518Y-89598412D01*
X139128412Y-89473518D01*
X139275272Y-89375389D01*
X139438454Y-89307797D01*
X139611687Y-89273339D01*
X139788313Y-89273339D01*
X139961546Y-89307797D01*
G37*
G36*
X142501546Y-89307797D02*
G01*
X142664728Y-89375389D01*
X142811588Y-89473518D01*
X142936482Y-89598412D01*
X143034611Y-89745272D01*
X143102203Y-89908454D01*
X143136661Y-90081687D01*
X143136661Y-90258313D01*
X143102203Y-90431546D01*
X143034611Y-90594728D01*
X142936482Y-90741588D01*
X142811588Y-90866482D01*
X142664728Y-90964611D01*
X142501546Y-91032203D01*
X142328313Y-91066661D01*
X142151687Y-91066661D01*
X141978454Y-91032203D01*
X141815272Y-90964611D01*
X141668412Y-90866482D01*
X141543518Y-90741588D01*
X141445389Y-90594728D01*
X141377797Y-90431546D01*
X141343339Y-90258313D01*
X141343339Y-90081687D01*
X141377797Y-89908454D01*
X141445389Y-89745272D01*
X141543518Y-89598412D01*
X141668412Y-89473518D01*
X141815272Y-89375389D01*
X141978454Y-89307797D01*
X142151687Y-89273339D01*
X142328313Y-89273339D01*
X142501546Y-89307797D01*
G37*
G36*
X161711546Y-87557797D02*
G01*
X161874728Y-87625389D01*
X162021588Y-87723518D01*
X162146482Y-87848412D01*
X162244611Y-87995272D01*
X162312203Y-88158454D01*
X162346661Y-88331687D01*
X162346661Y-88508313D01*
X162312203Y-88681546D01*
X162244611Y-88844728D01*
X162146482Y-88991588D01*
X162021588Y-89116482D01*
X161874728Y-89214611D01*
X161711546Y-89282203D01*
X161538313Y-89316661D01*
X161361687Y-89316661D01*
X161188454Y-89282203D01*
X161025272Y-89214611D01*
X160878412Y-89116482D01*
X160753518Y-88991588D01*
X160655389Y-88844728D01*
X160587797Y-88681546D01*
X160553339Y-88508313D01*
X160553339Y-88331687D01*
X160587797Y-88158454D01*
X160655389Y-87995272D01*
X160753518Y-87848412D01*
X160878412Y-87723518D01*
X161025272Y-87625389D01*
X161188454Y-87557797D01*
X161361687Y-87523339D01*
X161538313Y-87523339D01*
X161711546Y-87557797D01*
G37*
G36*
X139961546Y-86767797D02*
G01*
X140124728Y-86835389D01*
X140271588Y-86933518D01*
X140396482Y-87058412D01*
X140494611Y-87205272D01*
X140562203Y-87368454D01*
X140596661Y-87541687D01*
X140596661Y-87718313D01*
X140562203Y-87891546D01*
X140494611Y-88054728D01*
X140396482Y-88201588D01*
X140271588Y-88326482D01*
X140124728Y-88424611D01*
X139961546Y-88492203D01*
X139788313Y-88526661D01*
X139611687Y-88526661D01*
X139438454Y-88492203D01*
X139275272Y-88424611D01*
X139128412Y-88326482D01*
X139003518Y-88201588D01*
X138905389Y-88054728D01*
X138837797Y-87891546D01*
X138803339Y-87718313D01*
X138803339Y-87541687D01*
X138837797Y-87368454D01*
X138905389Y-87205272D01*
X139003518Y-87058412D01*
X139128412Y-86933518D01*
X139275272Y-86835389D01*
X139438454Y-86767797D01*
X139611687Y-86733339D01*
X139788313Y-86733339D01*
X139961546Y-86767797D01*
G37*
G36*
X142501546Y-86767797D02*
G01*
X142664728Y-86835389D01*
X142811588Y-86933518D01*
X142936482Y-87058412D01*
X143034611Y-87205272D01*
X143102203Y-87368454D01*
X143136661Y-87541687D01*
X143136661Y-87718313D01*
X143102203Y-87891546D01*
X143034611Y-88054728D01*
X142936482Y-88201588D01*
X142811588Y-88326482D01*
X142664728Y-88424611D01*
X142501546Y-88492203D01*
X142328313Y-88526661D01*
X142151687Y-88526661D01*
X141978454Y-88492203D01*
X141815272Y-88424611D01*
X141668412Y-88326482D01*
X141543518Y-88201588D01*
X141445389Y-88054728D01*
X141377797Y-87891546D01*
X141343339Y-87718313D01*
X141343339Y-87541687D01*
X141377797Y-87368454D01*
X141445389Y-87205272D01*
X141543518Y-87058412D01*
X141668412Y-86933518D01*
X141815272Y-86835389D01*
X141978454Y-86767797D01*
X142151687Y-86733339D01*
X142328313Y-86733339D01*
X142501546Y-86767797D01*
G37*
G36*
X161711546Y-85017797D02*
G01*
X161874728Y-85085389D01*
X162021588Y-85183518D01*
X162146482Y-85308412D01*
X162244611Y-85455272D01*
X162312203Y-85618454D01*
X162346661Y-85791687D01*
X162346661Y-85968313D01*
X162312203Y-86141546D01*
X162244611Y-86304728D01*
X162146482Y-86451588D01*
X162021588Y-86576482D01*
X161874728Y-86674611D01*
X161711546Y-86742203D01*
X161538313Y-86776661D01*
X161361687Y-86776661D01*
X161188454Y-86742203D01*
X161025272Y-86674611D01*
X160878412Y-86576482D01*
X160753518Y-86451588D01*
X160655389Y-86304728D01*
X160587797Y-86141546D01*
X160553339Y-85968313D01*
X160553339Y-85791687D01*
X160587797Y-85618454D01*
X160655389Y-85455272D01*
X160753518Y-85308412D01*
X160878412Y-85183518D01*
X161025272Y-85085389D01*
X161188454Y-85017797D01*
X161361687Y-84983339D01*
X161538313Y-84983339D01*
X161711546Y-85017797D01*
G37*
G36*
X139961546Y-84227797D02*
G01*
X140124728Y-84295389D01*
X140271588Y-84393518D01*
X140396482Y-84518412D01*
X140494611Y-84665272D01*
X140562203Y-84828454D01*
X140596661Y-85001687D01*
X140596661Y-85178313D01*
X140562203Y-85351546D01*
X140494611Y-85514728D01*
X140396482Y-85661588D01*
X140271588Y-85786482D01*
X140124728Y-85884611D01*
X139961546Y-85952203D01*
X139788313Y-85986661D01*
X139611687Y-85986661D01*
X139438454Y-85952203D01*
X139275272Y-85884611D01*
X139128412Y-85786482D01*
X139003518Y-85661588D01*
X138905389Y-85514728D01*
X138837797Y-85351546D01*
X138803339Y-85178313D01*
X138803339Y-85001687D01*
X138837797Y-84828454D01*
X138905389Y-84665272D01*
X139003518Y-84518412D01*
X139128412Y-84393518D01*
X139275272Y-84295389D01*
X139438454Y-84227797D01*
X139611687Y-84193339D01*
X139788313Y-84193339D01*
X139961546Y-84227797D01*
G37*
G36*
X142501546Y-84227797D02*
G01*
X142664728Y-84295389D01*
X142811588Y-84393518D01*
X142936482Y-84518412D01*
X143034611Y-84665272D01*
X143102203Y-84828454D01*
X143136661Y-85001687D01*
X143136661Y-85178313D01*
X143102203Y-85351546D01*
X143034611Y-85514728D01*
X142936482Y-85661588D01*
X142811588Y-85786482D01*
X142664728Y-85884611D01*
X142501546Y-85952203D01*
X142328313Y-85986661D01*
X142151687Y-85986661D01*
X141978454Y-85952203D01*
X141815272Y-85884611D01*
X141668412Y-85786482D01*
X141543518Y-85661588D01*
X141445389Y-85514728D01*
X141377797Y-85351546D01*
X141343339Y-85178313D01*
X141343339Y-85001687D01*
X141377797Y-84828454D01*
X141445389Y-84665272D01*
X141543518Y-84518412D01*
X141668412Y-84393518D01*
X141815272Y-84295389D01*
X141978454Y-84227797D01*
X142151687Y-84193339D01*
X142328313Y-84193339D01*
X142501546Y-84227797D01*
G37*
G36*
X161711546Y-82477797D02*
G01*
X161874728Y-82545389D01*
X162021588Y-82643518D01*
X162146482Y-82768412D01*
X162244611Y-82915272D01*
X162312203Y-83078454D01*
X162346661Y-83251687D01*
X162346661Y-83428313D01*
X162312203Y-83601546D01*
X162244611Y-83764728D01*
X162146482Y-83911588D01*
X162021588Y-84036482D01*
X161874728Y-84134611D01*
X161711546Y-84202203D01*
X161538313Y-84236661D01*
X161361687Y-84236661D01*
X161188454Y-84202203D01*
X161025272Y-84134611D01*
X160878412Y-84036482D01*
X160753518Y-83911588D01*
X160655389Y-83764728D01*
X160587797Y-83601546D01*
X160553339Y-83428313D01*
X160553339Y-83251687D01*
X160587797Y-83078454D01*
X160655389Y-82915272D01*
X160753518Y-82768412D01*
X160878412Y-82643518D01*
X161025272Y-82545389D01*
X161188454Y-82477797D01*
X161361687Y-82443339D01*
X161538313Y-82443339D01*
X161711546Y-82477797D01*
G37*
G36*
X143109517Y-81652882D02*
G01*
X143126062Y-81663938D01*
X143137118Y-81680483D01*
X143141000Y-81700000D01*
X143141000Y-83400000D01*
X143137118Y-83419517D01*
X143126062Y-83436062D01*
X143109517Y-83447118D01*
X143090000Y-83451000D01*
X141390000Y-83451000D01*
X141370483Y-83447118D01*
X141353938Y-83436062D01*
X141342882Y-83419517D01*
X141339000Y-83400000D01*
X141339000Y-81700000D01*
X141342882Y-81680483D01*
X141353938Y-81663938D01*
X141370483Y-81652882D01*
X141390000Y-81649000D01*
X143090000Y-81649000D01*
X143109517Y-81652882D01*
G37*
G36*
X139961546Y-81687797D02*
G01*
X140124728Y-81755389D01*
X140271588Y-81853518D01*
X140396482Y-81978412D01*
X140494611Y-82125272D01*
X140562203Y-82288454D01*
X140596661Y-82461687D01*
X140596661Y-82638313D01*
X140562203Y-82811546D01*
X140494611Y-82974728D01*
X140396482Y-83121588D01*
X140271588Y-83246482D01*
X140124728Y-83344611D01*
X139961546Y-83412203D01*
X139788313Y-83446661D01*
X139611687Y-83446661D01*
X139438454Y-83412203D01*
X139275272Y-83344611D01*
X139128412Y-83246482D01*
X139003518Y-83121588D01*
X138905389Y-82974728D01*
X138837797Y-82811546D01*
X138803339Y-82638313D01*
X138803339Y-82461687D01*
X138837797Y-82288454D01*
X138905389Y-82125272D01*
X139003518Y-81978412D01*
X139128412Y-81853518D01*
X139275272Y-81755389D01*
X139438454Y-81687797D01*
X139611687Y-81653339D01*
X139788313Y-81653339D01*
X139961546Y-81687797D01*
G37*
G36*
X162319517Y-79902882D02*
G01*
X162336062Y-79913938D01*
X162347118Y-79930483D01*
X162351000Y-79950000D01*
X162351000Y-81650000D01*
X162347118Y-81669517D01*
X162336062Y-81686062D01*
X162319517Y-81697118D01*
X162300000Y-81701000D01*
X160600000Y-81701000D01*
X160580483Y-81697118D01*
X160563938Y-81686062D01*
X160552882Y-81669517D01*
X160549000Y-81650000D01*
X160549000Y-79950000D01*
X160552882Y-79930483D01*
X160563938Y-79913938D01*
X160580483Y-79902882D01*
X160600000Y-79899000D01*
X162300000Y-79899000D01*
X162319517Y-79902882D01*
G37*
D10*
X137500000Y-78000000D02*
X167000000Y-78000000D01*
X167000000Y-110000000D01*
X137500000Y-110000000D01*
X137500000Y-78000000D01*
M02*
