M48
; DRILL file {KiCad 9.0.2} date 2025-09-05T09:59:28+0200
; FORMAT={-:-/ absolute / metric / decimal}
; #@! TF.CreationDate,2025-09-05T09:59:28+02:00
; #@! TF.GenerationSoftware,Kicad,Pcbnew,9.0.2
; #@! TF.FileFunction,Plated,1,2,PTH
FMAT,2
METRIC
; #@! TA.AperFunction,Plated,PTH,ViaDrill
T1C0.381
; #@! TA.AperFunction,Plated,PTH,ViaDrill
T2C0.400
; #@! TA.AperFunction,Plated,PTH,ComponentDrill
T3C0.750
; #@! TA.AperFunction,Plated,PTH,ComponentDrill
T4C1.000
%
G90
G05
T1
X155.45Y-100.0
X155.8Y-102.15
T2
X151.15Y-92.75
X156.1Y-93.85
X164.5Y-95.0
T3
X160.0Y-106.5
X162.0Y-106.5
X164.0Y-106.5
T4
X139.7Y-82.55
X139.7Y-85.09
X139.7Y-87.63
X139.7Y-90.17
X139.7Y-92.71
X139.7Y-95.25
X139.7Y-97.79
X139.7Y-100.33
X139.7Y-102.87
X139.7Y-105.41
X142.24Y-82.55
X142.24Y-85.09
X142.24Y-87.63
X142.24Y-90.17
X142.24Y-92.71
X142.24Y-95.25
X142.24Y-97.79
X142.24Y-100.33
X142.24Y-102.87
X142.24Y-105.41
X149.46Y-108.0
X152.0Y-108.0
X154.54Y-108.0
X160.26Y-96.07
X160.26Y-98.61
X160.26Y-101.15
X161.45Y-80.8
X161.45Y-83.34
X161.45Y-85.88
X161.45Y-88.42
X161.45Y-90.96
X162.8Y-96.07
X162.8Y-98.61
X162.8Y-101.15
M30
