G04 #@! TF.GenerationSoftware,KiCad,Pcbnew,9.0.2*
G04 #@! TF.CreationDate,2025-09-05T09:59:15+02:00*
G04 #@! TF.ProjectId,JtagArm20Adapter,4a746167-4172-46d3-9230-416461707465,rev?*
G04 #@! TF.SameCoordinates,Original*
G04 #@! TF.FileFunction,Legend,Top*
G04 #@! TF.FilePolarity,Positive*
%FSLAX46Y46*%
G04 Gerber Fmt 4.6, Leading zero omitted, Abs format (unit mm)*
G04 Created by KiCad (PCBNEW 9.0.2) date 2025-09-05 09:59:15*
%MOMM*%
%LPD*%
G01*
G04 APERTURE LIST*
%ADD10C,0.150000*%
%ADD11C,0.120000*%
G04 #@! TA.AperFunction,Profile*
%ADD12C,0.050000*%
G04 #@! TD*
G04 APERTURE END LIST*
D10*
X156216666Y-104104819D02*
X156216666Y-104819104D01*
X156216666Y-104819104D02*
X156169047Y-104961961D01*
X156169047Y-104961961D02*
X156073809Y-105057200D01*
X156073809Y-105057200D02*
X155930952Y-105104819D01*
X155930952Y-105104819D02*
X155835714Y-105104819D01*
X157169047Y-104104819D02*
X156692857Y-104104819D01*
X156692857Y-104104819D02*
X156645238Y-104581009D01*
X156645238Y-104581009D02*
X156692857Y-104533390D01*
X156692857Y-104533390D02*
X156788095Y-104485771D01*
X156788095Y-104485771D02*
X157026190Y-104485771D01*
X157026190Y-104485771D02*
X157121428Y-104533390D01*
X157121428Y-104533390D02*
X157169047Y-104581009D01*
X157169047Y-104581009D02*
X157216666Y-104676247D01*
X157216666Y-104676247D02*
X157216666Y-104914342D01*
X157216666Y-104914342D02*
X157169047Y-105009580D01*
X157169047Y-105009580D02*
X157121428Y-105057200D01*
X157121428Y-105057200D02*
X157026190Y-105104819D01*
X157026190Y-105104819D02*
X156788095Y-105104819D01*
X156788095Y-105104819D02*
X156692857Y-105057200D01*
X156692857Y-105057200D02*
X156645238Y-105009580D01*
X148404819Y-105383333D02*
X149119104Y-105383333D01*
X149119104Y-105383333D02*
X149261961Y-105430952D01*
X149261961Y-105430952D02*
X149357200Y-105526190D01*
X149357200Y-105526190D02*
X149404819Y-105669047D01*
X149404819Y-105669047D02*
X149404819Y-105764285D01*
X148404819Y-105002380D02*
X148404819Y-104383333D01*
X148404819Y-104383333D02*
X148785771Y-104716666D01*
X148785771Y-104716666D02*
X148785771Y-104573809D01*
X148785771Y-104573809D02*
X148833390Y-104478571D01*
X148833390Y-104478571D02*
X148881009Y-104430952D01*
X148881009Y-104430952D02*
X148976247Y-104383333D01*
X148976247Y-104383333D02*
X149214342Y-104383333D01*
X149214342Y-104383333D02*
X149309580Y-104430952D01*
X149309580Y-104430952D02*
X149357200Y-104478571D01*
X149357200Y-104478571D02*
X149404819Y-104573809D01*
X149404819Y-104573809D02*
X149404819Y-104859523D01*
X149404819Y-104859523D02*
X149357200Y-104954761D01*
X149357200Y-104954761D02*
X149309580Y-105002380D01*
X164754819Y-101533333D02*
X165469104Y-101533333D01*
X165469104Y-101533333D02*
X165611961Y-101580952D01*
X165611961Y-101580952D02*
X165707200Y-101676190D01*
X165707200Y-101676190D02*
X165754819Y-101819047D01*
X165754819Y-101819047D02*
X165754819Y-101914285D01*
X165754819Y-100533333D02*
X165754819Y-101104761D01*
X165754819Y-100819047D02*
X164754819Y-100819047D01*
X164754819Y-100819047D02*
X164897676Y-100914285D01*
X164897676Y-100914285D02*
X164992914Y-101009523D01*
X164992914Y-101009523D02*
X165040533Y-101104761D01*
X163866666Y-80254819D02*
X163866666Y-80969104D01*
X163866666Y-80969104D02*
X163819047Y-81111961D01*
X163819047Y-81111961D02*
X163723809Y-81207200D01*
X163723809Y-81207200D02*
X163580952Y-81254819D01*
X163580952Y-81254819D02*
X163485714Y-81254819D01*
X164295238Y-80350057D02*
X164342857Y-80302438D01*
X164342857Y-80302438D02*
X164438095Y-80254819D01*
X164438095Y-80254819D02*
X164676190Y-80254819D01*
X164676190Y-80254819D02*
X164771428Y-80302438D01*
X164771428Y-80302438D02*
X164819047Y-80350057D01*
X164819047Y-80350057D02*
X164866666Y-80445295D01*
X164866666Y-80445295D02*
X164866666Y-80540533D01*
X164866666Y-80540533D02*
X164819047Y-80683390D01*
X164819047Y-80683390D02*
X164247619Y-81254819D01*
X164247619Y-81254819D02*
X164866666Y-81254819D01*
D11*
X157640000Y-104390000D02*
X157640000Y-105640000D01*
X157940000Y-104690000D02*
X157940000Y-109410000D01*
X157940000Y-106000000D02*
X158550000Y-106000000D01*
X157940000Y-107300000D02*
X158550000Y-107300000D01*
X157940000Y-109410000D02*
X166060000Y-109410000D01*
X158550000Y-105300000D02*
X158550000Y-108800000D01*
X158550000Y-108800000D02*
X165450000Y-108800000D01*
X158890000Y-104390000D02*
X157640000Y-104390000D01*
X159400000Y-104490000D02*
X159400000Y-104690000D01*
X159700000Y-104490000D02*
X159400000Y-104490000D01*
X159700000Y-104590000D02*
X159400000Y-104590000D01*
X159700000Y-104690000D02*
X159700000Y-104490000D01*
X160500000Y-104690000D02*
X160500000Y-105300000D01*
X160500000Y-105300000D02*
X158550000Y-105300000D01*
X160900000Y-108300000D02*
X161100000Y-108300000D01*
X160900000Y-108800000D02*
X160900000Y-108300000D01*
X161000000Y-108800000D02*
X161000000Y-108300000D01*
X161100000Y-108300000D02*
X161100000Y-108800000D01*
X162900000Y-108300000D02*
X163100000Y-108300000D01*
X162900000Y-108800000D02*
X162900000Y-108300000D01*
X163000000Y-108800000D02*
X163000000Y-108300000D01*
X163100000Y-108300000D02*
X163100000Y-108800000D01*
X163500000Y-105300000D02*
X163500000Y-104690000D01*
X165450000Y-105300000D02*
X163500000Y-105300000D01*
X165450000Y-108800000D02*
X165450000Y-105300000D01*
X166060000Y-104690000D02*
X157940000Y-104690000D01*
X166060000Y-106000000D02*
X165450000Y-106000000D01*
X166060000Y-107300000D02*
X165450000Y-107300000D01*
X166060000Y-109410000D02*
X166060000Y-104690000D01*
X129610000Y-81220000D02*
X129610000Y-106740000D01*
X129610000Y-81220000D02*
X138240000Y-81220000D01*
X129610000Y-81340000D02*
X138240000Y-81340000D01*
X129610000Y-81458095D02*
X138240000Y-81458095D01*
X129610000Y-81576190D02*
X138240000Y-81576190D01*
X129610000Y-81694285D02*
X138240000Y-81694285D01*
X129610000Y-81812380D02*
X138240000Y-81812380D01*
X129610000Y-81930475D02*
X138240000Y-81930475D01*
X129610000Y-82048570D02*
X138240000Y-82048570D01*
X129610000Y-82166665D02*
X138240000Y-82166665D01*
X129610000Y-82284760D02*
X138240000Y-82284760D01*
X129610000Y-82402855D02*
X138240000Y-82402855D01*
X129610000Y-82520950D02*
X138240000Y-82520950D01*
X129610000Y-82639045D02*
X138240000Y-82639045D01*
X129610000Y-82757140D02*
X138240000Y-82757140D01*
X129610000Y-82875235D02*
X138240000Y-82875235D01*
X129610000Y-82993330D02*
X138240000Y-82993330D01*
X129610000Y-83111425D02*
X138240000Y-83111425D01*
X129610000Y-83229520D02*
X138240000Y-83229520D01*
X129610000Y-83347615D02*
X138240000Y-83347615D01*
X129610000Y-83465710D02*
X138240000Y-83465710D01*
X129610000Y-83583805D02*
X138240000Y-83583805D01*
X129610000Y-83701900D02*
X138240000Y-83701900D01*
X129610000Y-83820000D02*
X138240000Y-83820000D01*
X129610000Y-86360000D02*
X138240000Y-86360000D01*
X129610000Y-88900000D02*
X138240000Y-88900000D01*
X129610000Y-91440000D02*
X138240000Y-91440000D01*
X129610000Y-93980000D02*
X138240000Y-93980000D01*
X129610000Y-96520000D02*
X138240000Y-96520000D01*
X129610000Y-99060000D02*
X138240000Y-99060000D01*
X129610000Y-101600000D02*
X138240000Y-101600000D01*
X129610000Y-104140000D02*
X138240000Y-104140000D01*
X129610000Y-106740000D02*
X138240000Y-106740000D01*
X138240000Y-81220000D02*
X138240000Y-106740000D01*
X138240000Y-82190000D02*
X138650000Y-82190000D01*
X138240000Y-82910000D02*
X138650000Y-82910000D01*
X138240000Y-84730000D02*
X138650000Y-84730000D01*
X138240000Y-85450000D02*
X138650000Y-85450000D01*
X138240000Y-87270000D02*
X138650000Y-87270000D01*
X138240000Y-87990000D02*
X138650000Y-87990000D01*
X138240000Y-89810000D02*
X138650000Y-89810000D01*
X138240000Y-90530000D02*
X138650000Y-90530000D01*
X138240000Y-92350000D02*
X138650000Y-92350000D01*
X138240000Y-93070000D02*
X138650000Y-93070000D01*
X138240000Y-94890000D02*
X138650000Y-94890000D01*
X138240000Y-95610000D02*
X138650000Y-95610000D01*
X138240000Y-97430000D02*
X138650000Y-97430000D01*
X138240000Y-98150000D02*
X138650000Y-98150000D01*
X138240000Y-99970000D02*
X138650000Y-99970000D01*
X138240000Y-100690000D02*
X138650000Y-100690000D01*
X138240000Y-102510000D02*
X138650000Y-102510000D01*
X138240000Y-103230000D02*
X138650000Y-103230000D01*
X138240000Y-105050000D02*
X138650000Y-105050000D01*
X138240000Y-105770000D02*
X138650000Y-105770000D01*
X140750000Y-82190000D02*
X141130000Y-82190000D01*
X140750000Y-82910000D02*
X141130000Y-82910000D01*
X140750000Y-84730000D02*
X141190000Y-84730000D01*
X140750000Y-85450000D02*
X141190000Y-85450000D01*
X140750000Y-87270000D02*
X141190000Y-87270000D01*
X140750000Y-87990000D02*
X141190000Y-87990000D01*
X140750000Y-89810000D02*
X141190000Y-89810000D01*
X140750000Y-90530000D02*
X141190000Y-90530000D01*
X140750000Y-92350000D02*
X141190000Y-92350000D01*
X140750000Y-93070000D02*
X141190000Y-93070000D01*
X140750000Y-94890000D02*
X141190000Y-94890000D01*
X140750000Y-95610000D02*
X141190000Y-95610000D01*
X140750000Y-97430000D02*
X141190000Y-97430000D01*
X140750000Y-98150000D02*
X141190000Y-98150000D01*
X140750000Y-99970000D02*
X141190000Y-99970000D01*
X140750000Y-100690000D02*
X141190000Y-100690000D01*
X140750000Y-102510000D02*
X141190000Y-102510000D01*
X140750000Y-103230000D02*
X141190000Y-103230000D01*
X140750000Y-105050000D02*
X141190000Y-105050000D01*
X140750000Y-105770000D02*
X141190000Y-105770000D01*
X142240000Y-81220000D02*
X143350000Y-81220000D01*
X143350000Y-81220000D02*
X143350000Y-82550000D01*
X148080000Y-109380000D02*
X148080000Y-108000000D01*
X149460000Y-109380000D02*
X148080000Y-109380000D01*
X150730000Y-106620000D02*
X155920000Y-106620000D01*
X150730000Y-109380000D02*
X150730000Y-106620000D01*
X150730000Y-109380000D02*
X155920000Y-109380000D01*
X155920000Y-109380000D02*
X155920000Y-106620000D01*
X158880000Y-102530000D02*
X158880000Y-94690000D01*
X161530000Y-99880000D02*
X161530000Y-102530000D01*
X161530000Y-102530000D02*
X158880000Y-102530000D01*
X164180000Y-94690000D02*
X158880000Y-94690000D01*
X164180000Y-99880000D02*
X161530000Y-99880000D01*
X164180000Y-99880000D02*
X164180000Y-94690000D01*
X164180000Y-101150000D02*
X164180000Y-102530000D01*
X164180000Y-102530000D02*
X162800000Y-102530000D01*
X160070000Y-79420000D02*
X161450000Y-79420000D01*
X160070000Y-80800000D02*
X160070000Y-79420000D01*
X160070000Y-82070000D02*
X160070000Y-92340000D01*
X160070000Y-82070000D02*
X162830000Y-82070000D01*
X160070000Y-92340000D02*
X162830000Y-92340000D01*
X162830000Y-82070000D02*
X162830000Y-92340000D01*
D12*
X137500000Y-78000000D02*
X167000000Y-78000000D01*
X167000000Y-110000000D01*
X137500000Y-110000000D01*
X137500000Y-78000000D01*
M02*
